<svg height="510pt" viewBox="0 -59 510.42019 510" width="510pt" xmlns="http://www.w3.org/2000/svg"><path d="m501.921875 247.476562c-.421875 10.574219-7.304687 19.796876-17.320313 23.210938-6.777343 2.449219-12.097656 7.804688-14.507812 14.59375-19.285156 56.148438-82.261719 97.535156-177.238281 98.730469-4.265625-.085938-8.53125-.171875-12.714844-.425781-17.429687-.851563-34.746094-3.335938-51.710937-7.425782-2.644532-.683594-5.207032-1.367187-7.765626-2.132812l128.085938-250.113282 3.242188-6.3125c6.398437 1.449219 12.542968 3.070313 18.515624 5.035157 51.714844 16.125 86.1875 48.039062 99.585938 87.039062 2.410156 6.789063 7.730469 12.140625 14.507812 14.589844 10.015626 3.414063 16.898438 12.636719 17.320313 23.210937zm0 0" fill="#ff9801"/><path d="m476.324219 247.476562c-.421875 10.574219-7.308594 19.796876-17.324219 23.210938-6.773438 2.449219-12.097656 7.804688-14.507812 14.59375-18.429688 53.589844-76.542969 93.695312-164.351563 98.304688-17.429687-.851563-34.746094-3.335938-51.710937-7.425782-2.644532-.683594-5.207032-1.367187-7.765626-2.132812l128.085938-250.113282c49.578125 16.46875 82.6875 47.703126 95.742188 85.761719 2.410156 6.789063 7.734374 12.140625 14.507812 14.589844 10.015625 3.414063 16.902344 12.636719 17.324219 23.210937zm0 0" fill="#fec108"/><path d="m100.855469 37.683594c-90.050781 90.011718-111.257813 188.359375-76.535157 259.132812 3.972657 8.53125 3.972657 18.378906 0 26.90625-6.085937 12.421875-3.925781 27.304688 5.445313 37.480469 10.175781 9.367187 25.058594 11.53125 37.476563 5.441406 8.53125-3.972656 18.378906-3.972656 26.90625 0 70.777343 34.722657 169.121093 13.519531 259.132812-76.492187zm0 0" fill="#f0c419"/><path d="m100.855469 37.683594c-90.050781 90.011718-111.257813 188.359375-76.535157 259.132812 3.972657 8.53125 3.972657 18.378906 0 26.90625-6.085937 12.421875-3.925781 27.304688 5.445313 37.480469 10.175781 9.367187 25.058594 11.53125 37.476563 5.441406 8.53125-3.972656 18.378906-3.972656 26.90625 0 70.777343 34.722657 169.121093 13.519531 259.132812-76.492187zm0 0" fill="#fec108"/><path d="m317.109375 73.890625c-69.753906-69.75-166.230469-86.261719-215.597656-36.894531-49.363281 49.363281-32.851563 145.839844 36.890625 215.601562 69.742187 69.761719 166.230468 86.261719 215.59375 36.898438 49.367187-49.367188 32.863281-145.851563-36.886719-215.605469zm0 0" fill="#ffeb3a"/><g fill="#ffecb3"><path d="m224.503906 144.222656c-4.449218-1.097656-9.15625.109375-12.527344 3.21875l-61.535156-61.535156c-9.769531-9.769531-11.210937-23.730469-2.558594-28.621094 11.503907-6.277344 24.351563-9.691406 37.453126-9.957031 12.917968.675781 23.769531 9.949219 26.453124 22.605469zm0 0"/><path d="m208.761719 159.984375c-1.101563-4.449219.109375-9.15625 3.214843-12.527344l-61.535156-61.53125c-9.769531-9.773437-23.730468-11.214843-28.617187-2.5625-6.28125 11.496094-9.703125 24.332031-9.976563 37.429688.675782 12.917969 9.949219 23.769531 22.605469 26.453125zm0 0"/><path d="m282.480469 108.519531-43.519531 43.519531c-3.875-4.046874-8.917969-6.785156-14.421876-7.832031l-12.75-74.273437c-2.089843-12.21875 7.679688-19.148438 20.078126-14.644532 15.5 5.746094 30.058593 13.757813 43.207031 23.773438 10.957031 8.253906 14.316406 22.546875 7.40625 29.457031zm0 0"/><path d="m321.066406 179.210938-74.289062-12.714844c-1.046875-5.503906-3.785156-10.546875-7.835938-14.421875l43.519532-43.519531c6.914062-6.910157 21.207031-3.515626 29.457031 7.40625 10.015625 13.148437 18.027343 27.707031 23.777343 43.207031 4.519532 12.363281-2.410156 22.132812-14.628906 20.042969zm0 0"/><path d="m305.074219 240.558594-61.53125-61.535156c3.113281-3.367188 4.328125-8.074219 3.234375-12.527344l74.289062 12.714844c12.65625 2.683593 21.929688 13.535156 22.605469 26.453124-.273437 13.09375-3.695313 25.933594-9.976563 37.425782-4.886718 8.65625-18.847656 7.238281-28.621093-2.53125zm0 0"/><path d="m307.609375 269.179688c-11.496094 6.277343-24.332031 9.699218-37.425781 9.972656-12.917969-.675782-23.769532-9.949219-26.453125-22.605469l-12.714844-74.308594c4.449219 1.101563 9.15625-.109375 12.527344-3.214843l61.53125 61.535156c9.773437 9.769531 11.214843 23.730468 2.535156 28.621094zm0 0"/><path d="m223.652344 271.191406c-15.5-5.746094-30.058594-13.757812-43.207032-23.773437-10.921874-8.25-14.316406-22.546875-7.40625-29.457031l43.519532-43.519532c3.875 4.046875 8.917968 6.785156 14.421875 7.832032l12.714843 74.308593c2.125 12.1875-7.652343 19.113281-20.042968 14.609375zm0 0"/><path d="m216.59375 174.40625-43.519531 43.519531c-6.914063 6.914063-21.207031 3.515625-29.457031-7.40625-10.015626-13.148437-18.027344-27.707031-23.773438-43.203125-4.507812-12.390625 2.421875-22.1875 14.640625-20.078125l74.308594 12.710938c1.03125 5.515625 3.757812 10.570312 7.800781 14.457031zm0 0"/></g><path d="m243.542969 179.023438c-3.371094 3.105468-8.078125 4.316406-12.527344 3.214843-11.160156-2.375-19.878906-11.09375-22.253906-22.253906-1.300781-4.453125-.070313-9.257813 3.207031-12.539063s8.082031-4.515624 12.535156-3.222656c11.171875 2.375 19.898438 11.101563 22.273438 22.273438 1.09375 4.453125-.121094 9.160156-3.234375 12.527344zm0 0" fill="#fec108"/><path d="m175.308594 254.226562c13.816406 10.539063 29.125 18.960938 45.421875 24.988282 3.28125 1.210937 6.746093 1.84375 10.242187 1.867187 5.117188.09375 10.105469-1.59375 14.113282-4.777343 6.308593 6.90625 15.117187 11.007812 24.464843 11.390624h.949219c14.464844-.308593 28.640625-4.113281 41.316406-11.09375 5.480469-3.105468 9.140625-8.640624 9.855469-14.898437.179687-1.488281.226563-2.992187.136719-4.488281.386718 0 .777344.128906 1.152344.128906 1.101562 0 2.203124-.074219 3.292968-.222656 6.257813-.707032 11.796875-4.367188 14.890625-9.847656 6.976563-12.679688 10.78125-26.855469 11.09375-41.320313-.09375-9.6875-4.222656-18.902344-11.390625-25.417969 5.21875-7.019531 6.328125-16.277344 2.917969-24.332031-6.027344-16.296875-14.449219-31.609375-24.984375-45.429687-5.792969-7.898438-14.601562-13.042969-24.328125-14.199219-1.15625-9.726563-6.300781-18.535157-14.199219-24.320313-13.816406-10.539062-29.125-18.960937-45.425781-24.984375-8.070313-3.417969-17.347656-2.296875-24.371094 2.941407-6.527343-7.136719-15.710937-11.265626-25.386719-11.417969-14.460937.316406-28.632812 4.121093-41.308593 11.09375-5.480469 3.097656-9.144531 8.636719-9.847657 14.890625-.183593 1.476562-.234374 2.964844-.152343 4.449218-1.476563-.085937-2.960938-.039062-4.429688.132813-6.257812.714844-11.792969 4.378906-14.898437 9.859375-6.980469 12.671875-10.785156 26.851562-11.09375 41.316406.082031 9.679688 4.199218 18.882813 11.355468 25.394532-5.195312 7.027343-6.300781 16.273437-2.90625 24.328124 6.023438 16.300782 14.445313 31.609376 24.984376 45.425782 5.789062 7.902344 14.597656 13.050781 24.328124 14.214844 1.160157 9.726562 6.304688 18.539062 14.207032 24.328124zm58.976562 8.875c-2.390625 1.300782-5.269531 1.328126-7.683594.070313-14.695312-5.449219-28.5-13.050781-40.957031-22.5625-4.136719-2.960937-6.878906-7.484375-7.585937-12.519531-.199219-1.453125.183594-2.925782 1.066406-4.097656l38.167969-38.167969c.28125.179687.589843.273437.855469.445312 1.4375.867188 2.941406 1.628907 4.496093 2.277344.296875.128906.578125.332031.851563.453125l11.8125 68.980469c.511718 1.773437.128906 3.683593-1.023438 5.121093zm69.117188-1.355468c-10.300782 5.617187-21.808594 8.660156-33.542969 8.875-8.660156-.761719-15.832031-7.035156-17.734375-15.515625l-11.09375-64.980469c.394531-.121094.785156-.246094 1.171875-.390625l56.839844 56.890625c3.664062 3.238281 5.746093 7.90625 5.699219 12.800781-.238282 1.703125-.996094 2.132813-1.320313 2.320313zm31.726562-56.390625c-.21875 11.734375-3.265625 23.242187-8.882812 33.546875-.179688.324218-.613282 1.082031-2.347656 1.320312-4.894532.074219-9.574219-2.011718-12.796876-5.699218l-56.851562-56.855469c.136719-.386719.265625-.769531.386719-1.164063l64.980469 11.09375c8.472656 1.941406 14.738281 9.105469 15.53125 17.757813zm-46.617187-90.800781c1.160156-.90625 2.644531-1.292969 4.097656-1.066407 5.035156.703125 9.558594 3.445313 12.507813 7.585938 9.523437 12.453125 17.128906 26.257812 22.570312 40.960937 1.269531 2.40625 1.246094 5.292969-.066406 7.679688-1.4375 1.15625-3.347656 1.539062-5.121094 1.03125l-68.984375-11.75c-.144531-.382813-.40625-.742188-.570313-1.128906-.609374-1.449219-1.320312-2.851563-2.125-4.207032-.1875-.304687-.28125-.628906-.476562-.9375zm-67.277344-51.199219c2.386719-1.3125 5.273437-1.339844 7.679687-.070313 14.703126 5.441406 28.507813 13.050782 40.960938 22.570313 4.140625 2.953125 6.882812 7.476562 7.585938 12.511719.203124 1.453124-.179688 2.925781-1.066407 4.09375l-38.152343 38.195312c-.28125-.179688-.589844-.273438-.851563-.441406-1.449219-.875-2.960937-1.644532-4.523437-2.296875-.300782-.121094-.570313-.324219-.855469-.433594l-11.800781-68.992187c-.507813-1.769532-.125-3.675782 1.023437-5.113282zm-3.222656 90.109375c.394531-.359375.867187-.621094 1.382812-.765625.132813-.042969.28125-.050781.417969-.085938.40625-.089843.820312-.140625 1.234375-.15625h.28125c.621094.011719 1.234375.070313 1.84375.179688 7.582031 1.800781 13.480469 7.761719 15.199219 15.363281.457031 1.691406.144531 3.503906-.855469 4.949219-.664063.578125-1.503906.914062-2.386719.953125-.070312.019531-.140625.035156-.214844.042968h-.375c-.351562 0-.714843 0-1.039062 0h-.085938c-.402343 0-.769531-.09375-1.058593-.144531-7.574219-1.8125-13.464844-7.765625-15.199219-15.359375-.457031-1.695312-.144531-3.503906.855469-4.949218zm-65.914063-88.746094c10.300782-5.617188 21.804688-8.664062 33.539063-8.882812h.363281c8.492188.988281 15.445312 7.203124 17.375 15.53125l11.09375 64.980468c-.390625.121094-.777344.246094-1.160156.382813l-56.859375-56.847657c-3.667969-3.234374-5.75-7.90625-5.699219-12.800781.265625-1.730469 1.023438-2.167969 1.347656-2.347656zm-31.71875 56.378906c.214844-11.730468 3.261719-23.234375 8.875-33.535156.1875-.324219.617188-1.082031 2.347656-1.324219.339844-.039062.683594-.058593 1.023438-.058593 4.515625.363281 8.726562 2.421874 11.785156 5.761718l56.859375 56.855469c-.148437.386719-.273437.777344-.394531 1.171875l-64.988281-11.09375c-8.464844-1.945312-14.722657-9.109375-15.507813-17.757812zm30.023438 84.292969c-9.519532-12.457031-17.125-26.261719-22.574219-40.960937-1.257813-2.410157-1.230469-5.289063.070313-7.679688.882812-.859375 2.097656-1.296875 3.328124-1.195312.589844.007812 1.183594.058593 1.765626.15625l68.984374 11.808593c.152344.394531.417969.75.578126 1.144531.613281 1.4375 1.320312 2.828126 2.117187 4.171876.179687.308593.28125.640624.480469.949218l-38.171875 38.167969c-1.175781.875-2.644531 1.253906-4.09375 1.066406-5.03125-.71875-9.542969-3.472656-12.484375-7.613281zm0 0"/><path d="m487.714844 216.324219c-4.433594-1.539063-7.9375-4.984375-9.550782-9.386719-16.210937-47.148438-60.183593-82.253906-120.941406-96.785156-9.808594-15.269532-21.238281-29.4375-34.082031-42.257813-72.953125-73.003906-175.0625-89.523437-227.660156-36.941406-.179688.179687-.308594.382813-.488281.554687-.175782.171876-.144532.085938-.210938.144532-86.9375 86.972656-116.855469 189.96875-78.113281 268.917968 2.882812 6.285157 2.832031 13.523438-.148438 19.765626-7.488281 15.640624-4.613281 34.277343 7.246094 46.933593 12.65625 11.855469 31.292969 14.730469 46.933594 7.242188 6.238281-2.976563 13.480469-3.027344 19.761719-.144531 22.910156 11.125 48.074218 16.816406 73.542968 16.632812 19.089844-.136719 38.066406-2.914062 56.394532-8.253906 21.886718 5.882812 44.40625 9.09375 67.066406 9.566406.367187.105469.746094.179688 1.125.230469h8.53125c.339844-.042969.671875-.113281 1-.203125 89.949218-2.558594 158.71875-42.199219 180.054687-104.355469 1.601563-4.402344 5.097657-7.847656 9.523438-9.386719 13.535156-4.339844 22.722656-16.929687 22.722656-31.144531 0-14.21875-9.1875-26.808594-22.722656-31.148437zm-380.167969-173.296875c18.464844-17.550782 43.222656-26.921875 68.683594-26 43.433593 0 93.910156 21.964844 134.828125 62.898437 66.285156 66.285157 82.839844 157.59375 36.898437 203.527344-45.945312 45.9375-137.226562 29.390625-203.511719-36.898437-66.289062-66.285157-82.84375-157.59375-36.898437-203.527344zm-9.609375 315.980468c-10.757812-5.128906-23.242188-5.199218-34.054688-.1875-9.21875 4.636719-20.328124 3.191407-28.050781-3.652343-6.847656-7.71875-8.296875-18.835938-3.652343-28.050781 5.003906-10.816407 4.933593-23.300782-.1875-34.0625-28.714844-58.503907-15.300782-132.335938 34.246093-201.660157-7.757812 52.335938 15.664063 116.761719 66.140625 167.253907 44.152344 44.152343 98.984375 67.644531 147.078125 67.644531 6.769531-.019531 13.527344-.535157 20.21875-1.546875-69.335937 49.554687-143.191406 63.003906-201.738281 34.261718zm383.546875-96.265624c-9.085937 3.371093-16.214844 10.589843-19.464844 19.722656-19.316406 56.320312-84.164062 91.921875-169.105469 93.011718-14.003906-.179687-27.980468-1.378906-41.8125-3.589843 40.5625-18.136719 77.3125-43.8125 108.289063-75.667969.050781-.050781.066406-.125.121094-.179688.1875-.1875.390625-.332031.578125-.519531 38.527344-38.535156 39.800781-103.644531 9.113281-164.394531 46.660156 14.984375 80.035156 43.929688 92.835937 81.246094 3.226563 9.179687 10.367188 16.449218 19.488282 19.839844 6.996094 1.765624 11.894531 8.054687 11.894531 15.265624 0 7.214844-4.898437 13.503907-11.894531 15.265626zm0 0"/><path d="m104.984375 301.613281c-5.289063.726563-10.640625-.839843-14.699219-4.308593-1.371094-2.515626-1.679687-5.476563-.855468-8.21875 1.351562-4.441407-1.09375-9.144532-5.503907-10.589844-4.410156-1.449219-9.167969.894531-10.710937 5.273437-2.539063 7.890625-1.371094 16.511719 3.175781 23.441407 7.0625 8.296874 17.757813 12.582031 28.59375 11.453124 4.714844 0 8.535156-3.820312 8.535156-8.535156 0-4.710937-3.820312-8.53125-8.535156-8.53125zm0 0"/><path d="m162.59375 314.558594c-5.285156.738281-10.632812-.8125-14.703125-4.265625-1.367187-2.515625-1.675781-5.476563-.851563-8.21875 1.3125-4.429688-1.136718-9.101563-5.527343-10.539063s-9.128907.882813-10.6875 5.230469c-2.546875 7.894531-1.382813 16.515625 3.167969 23.449219 7.058593 8.296875 17.757812 12.582031 28.59375 11.453125 4.714843 0 8.535156-3.820313 8.535156-8.535157 0-4.710937-3.820313-8.53125-8.535156-8.53125zm0 0"/><path d="m99.191406 251.148438c0-4.714844-3.820312-8.535157-8.53125-8.535157-5.296875.722657-10.644531-.84375-14.710937-4.308593-1.363281-2.519532-1.671875-5.480469-.855469-8.226563 1.285156-4.421875-1.167969-9.0625-5.542969-10.492187-4.375-1.429688-9.097656.867187-10.671875 5.191406-2.542968 7.894531-1.375 16.515625 3.175782 23.449218 7.0625 8.300782 17.757812 12.585938 28.59375 11.453126 2.265624.003906 4.4375-.894532 6.042968-2.496094 1.601563-1.601563 2.5-3.773438 2.5-6.035156zm0 0"/><path d="m420.402344 290.996094c-2.023438-1.011719-4.367188-1.175782-6.515625-.460938-2.148438.71875-3.921875 2.257813-4.933594 4.285156-5.660156 11.324219-23.042969 19.234376-29.210937 21.332032-4.019532 1.292968-6.492188 5.332031-5.8125 9.496094.679687 4.167968 4.304687 7.214843 8.527343 7.164062.914063-.003906 1.824219-.152344 2.695313-.4375 1.1875-.402344 29.074218-9.882812 39.074218-29.867188 1.03125-2.03125 1.207032-4.390624.488282-6.550781-.714844-2.164062-2.269532-3.949219-4.3125-4.960937zm0 0"/></svg>