<svg id="Layer_1" enable-background="new 0 0 512 512" height="512" viewBox="0 0 512 512" width="512" xmlns="http://www.w3.org/2000/svg"><g><g><path d="m496.988 497.02s-11.201.81-31.292 1.9c-71.815 3.89-257.188 11.341-450.682-1.9-16.941-247.638 0-481.975 0-481.975s214.985-15.541 450.722-1.97c10.381.6 20.802 1.26 31.252 1.97 16.941 247.638 0 481.975 0 481.975z" fill="#fab684"/><path d="m496.988 15.045c16.941 247.638 0 481.975 0 481.975s-11.201.81-31.292 1.9c3.91-68.075 13.141-270.12.04-485.845 10.38.6 20.801 1.26 31.252 1.97z" fill="#f79e60"/><path d="m449.624 449.656c-9.241.46-19.801.94-31.522 1.42-79.836 3.25-213.835 6.25-355.866-1.28-8.631-162.892-3.43-315.203.14-387.388 67.525-3.34 205.115-8.101 355.906-1.65 10.431.45 20.931.95 31.482 1.51 8.631 162.892 3.431 315.203-.14 387.388z" fill="#8389aa"/><path d="m449.624 449.656c-9.241.46-19.801.94-31.522 1.42 3.7-83.636 7.64-230.627.18-390.318 10.431.45 20.931.95 31.482 1.51 8.631 162.892 3.431 315.203-.14 387.388z" fill="#646d91"/><g fill="#f4f1e1"><path d="m157.415 58.899c-38.726.977-71.237 2.33-95.041 3.506-1.174 23.776-2.526 56.242-3.503 94.914 32.131-1.704 63.87-2.875 95.089-3.621.973-38.858 2.3-71.408 3.455-94.799z"/><path d="m453.245 354.749c-.97 38.733-2.33 71.235-3.5 95.047-9.281.46-19.881.94-31.652 1.42-18.401.75-39.683 1.48-63.265 2.08 1.7-32.132 2.88-63.875 3.62-95.087 23.452-.59 44.593-1.31 62.825-2.03 11.98-.48 22.701-.97 31.972-1.43z"/><path d="m359.546 256.159h-103.422v103.422c37.094-.065 71.668-.61 102.325-1.375.846-35.318 1.155-69.644 1.097-102.047z"/><path d="m152.701 256.159h103.422v-103.423c-37.094.065-71.668.61-102.325 1.375-.845 35.319-1.154 69.645-1.097 102.048z"/><path d="m152.579 256.03h-95.044c-.051 31.233.254 64.388 1.082 98.723l.247-.006c31.947 1.694 63.762 2.855 94.811 3.601-.848-35.417-1.155-69.836-1.096-102.318z"/><path d="m256 454.497v-95.045c-32.488.057-66.909-.253-102.325-1.104.746 31.132 1.909 63.034 3.607 95.07z"/><path d="m454.585 256.162h-95.037c-.04-18.491-.19-36.353-.43-53.424-.23-17.071-.56-33.332-.94-48.624 23.662.59 44.993 1.31 63.345 2.05 11.881.47 22.522.95 31.732 1.41l.26-.01c.82 34.293 1.13 67.406 1.07 98.598z"/><path d="m354.71 58.775c-34.286-.825-67.394-1.13-98.586-1.079v95.04c36.991.067 71.471.611 102.054 1.374-.974-39.095-2.308-71.836-3.468-95.335z"/></g><g fill="#f4e5cb"><path d="m421.272 356.179c11.981-.48 22.702-.97 31.972-1.43-.97 38.733-2.33 71.235-3.5 95.047-9.281.46-19.881.94-31.652 1.42 1.16-26.032 2.33-58.224 3.18-95.037z"/><path d="m454.585 256.162h-32.082c.05-31.742-.23-65.275-.98-99.997 11.881.47 22.522.95 31.732 1.41l.26-.01c.82 34.292 1.13 67.405 1.07 98.597z"/></g><g><ellipse cx="204.55" cy="204.229" fill="#c7cde0" rx="17.632" ry="17.61"/><ellipse cx="104.709" cy="305.636" fill="#c7cde0" rx="17.632" ry="17.61"/><g fill="#646d91"><ellipse cx="205.551" cy="105.184" rx="17.632" ry="17.61"/><ellipse cx="306.558" cy="204.229" rx="17.632" ry="17.61"/><ellipse cx="306.558" cy="405.876" rx="17.632" ry="17.61"/></g></g></g><g><path d="m9.45 393.254c.083 0 .167-.001.25-.004 4.141-.136 7.387-3.602 7.251-7.742-5.808-177.415 3-330.539 5.105-363.422 15.832-1.02 59.529-3.604 119.934-5.339 4.14-.119 7.401-3.572 7.282-7.713-.117-4.068-3.45-7.285-7.494-7.285-.072 0-.146.001-.22.003-76.658 2.202-126.594 5.771-127.089 5.807-3.717.269-6.672 3.224-6.941 6.94-.122 1.689-12.127 171.199-5.57 371.5.133 4.056 3.463 7.255 7.492 7.255z"/><path d="m504.475 14.528c-.256-3.739-3.232-6.716-6.971-6.971-97.809-6.688-204.704-8.953-317.717-6.73-4.142.082-7.433 3.505-7.351 7.647.08 4.092 3.421 7.354 7.496 7.353.05 0 .101 0 .15-.001 110.061-2.164 214.276-.058 309.866 6.259 8.262 125.167 7.79 246.176 5.906 326.224-.098 4.141 3.181 7.577 7.322 7.675.061.001.12.002.18.002 4.061 0 7.4-3.243 7.496-7.324 1.923-81.755 2.379-206.087-6.377-334.134z"/><path d="m502.552 378.257c-4.113-.134-7.605 3.113-7.74 7.253-1.698 52.344-3.934 90.013-4.866 104.466-39.149 2.502-248.691 14.476-467.894.004-1.503-22.76-2.78-46.31-3.803-70.105-.178-4.139-3.667-7.334-7.816-7.172-4.138.178-7.349 3.677-7.171 7.816 1.126 26.206 2.561 52.118 4.263 77.017.256 3.739 3.232 6.716 6.971 6.971 82.193 5.62 163.249 7.493 234.815 7.493 142.049 0 246.66-7.382 248.223-7.495 3.716-.269 6.671-3.224 6.94-6.94.031-.43 3.133-43.785 5.332-111.568.135-4.141-3.114-7.606-7.254-7.74z"/><path d="m54.882 62.035c-3.73 75.525-8.708 226.381-.13 388.154.203 3.83 3.263 6.89 7.092 7.093 65.807 3.49 129.793 4.736 187.645 4.736 84.383 0 155.707-2.653 200.509-4.866 3.852-.19 6.931-3.27 7.122-7.121 3.73-75.525 8.708-226.381.13-388.154-.203-3.83-3.263-6.89-7.092-7.093-161.788-8.576-312.635-3.6-388.154.13-3.853.189-6.932 3.269-7.122 7.121zm193.618 3.038v79.996c-27.646 0-56.789.274-86.857.934.893-33.001 2.008-60.296 2.928-79.787 25.73-.608 53.92-1.038 83.929-1.143zm98.93.903c.95 20.117 2.048 47.38 2.925 80.295-26.203-.613-55.452-1.064-86.854-1.175v-80.047c26.807.007 54.927.283 83.929.927zm3.917 126.61c.066 4.1 3.411 7.378 7.497 7.378.042 0 .084 0 .125-.001 4.142-.067 7.445-3.48 7.377-7.622-.173-10.636-.377-20.873-.603-30.678 33.266.898 60.751 2.022 80.313 2.947.644 28.997.92 57.114.927 83.918h-80.079c-.024-6.869-.065-13.77-.122-20.702-.034-4.121-3.386-7.439-7.5-7.439-.021 0-.042 0-.063 0-4.143.034-7.473 3.42-7.439 7.562.057 6.891.097 13.75.122 20.578h-88.402v-88.432c31.564.112 60.945.569 87.228 1.188.234 9.994.442 20.44.619 31.303zm94.469 154.885c-19.528.92-46.827 2.033-79.809 2.924.617-28.252.926-57.244.924-86.864h80.028c-.104 30.012-.534 58.207-1.143 83.94zm-182.315 99.52v-80.028c31.507-.11 60.851-.561 87.131-1.176-.718 27.461-1.734 54.183-3.045 80.057-25.772.611-54.016 1.043-84.086 1.147zm-99.087-.906c-1.371-27.047-2.365-53.851-3.056-80.041 30.166.667 59.405.944 87.142.945v80.026c-26.855-.006-55.029-.283-84.086-.93zm-99.396-182.555h80.024c0 27.731.275 56.969.94 87.136-26.189-.692-52.99-1.689-80.033-3.062-.648-29.053-.925-57.222-.931-84.074zm95.023 0h88.459v88.459c-27.845-.002-57.21-.282-87.507-.958-.673-30.297-.952-59.66-.952-87.501zm103.46 88.434v-88.434h88.429c.001 29.759-.312 58.879-.936 87.244-26.357.622-55.828 1.079-87.493 1.19zm-15.001-191.894v88.459h-88.432c.113-31.678.572-61.157 1.195-87.513 30.203-.669 59.477-.945 87.237-.946zm-103.432 88.459h-80.026c.104-30.074.536-58.323 1.147-84.098 27.055-1.369 53.865-2.362 80.06-3.051-.616 26.278-1.07 55.629-1.181 87.149zm-78.754 114.114c27.048 1.364 53.846 2.352 80.029 3.038.685 26.185 1.671 52.987 3.033 80.037-26.126-.692-52.893-1.691-79.994-3.067-1.377-27.105-2.376-53.877-3.068-80.008zm296.312 82.818c1.302-25.882 2.31-52.601 3.022-80.051 32.84-.881 60.111-1.983 79.785-2.903-.851 31.225-1.939 58.321-2.968 79.99-21.634 1.027-48.677 2.114-79.839 2.964zm83.065-295.884c-19.717-.926-47.185-2.039-80.32-2.928-.868-32.801-1.957-60.057-2.906-80.307 26.177.692 52.998 1.692 80.154 3.071 1.38 27.159 2.38 53.983 3.072 80.164zm-296.156-82.977c-.92 19.64-2.024 46.907-2.908 79.765-26.19.683-52.997 1.667-80.055 3.027.85-31.154 1.937-58.193 2.963-79.824 21.672-1.029 48.771-2.117 80-2.968z"/><path d="m204.551 229.34c13.858 0 25.133-11.265 25.133-25.111s-11.274-25.111-25.133-25.111c-13.858 0-25.133 11.265-25.133 25.111s11.274 25.111 25.133 25.111zm0-35.221c5.586 0 10.132 4.535 10.132 10.11s-4.545 10.11-10.132 10.11c-5.586 0-10.132-4.535-10.132-10.11s4.545-10.11 10.132-10.11z"/><path d="m104.709 280.526c-13.858 0-25.133 11.265-25.133 25.111s11.274 25.111 25.133 25.111c13.857 0 25.132-11.265 25.132-25.111 0-13.847-11.274-25.111-25.132-25.111zm0 35.221c-5.586 0-10.132-4.535-10.132-10.11s4.545-10.11 10.132-10.11c5.586 0 10.131 4.535 10.131 10.11 0 5.574-4.544 10.11-10.131 10.11z"/><path d="m205.551 130.295c13.858 0 25.133-11.265 25.133-25.111s-11.274-25.111-25.133-25.111-25.133 11.265-25.133 25.111 11.274 25.111 25.133 25.111zm0-35.221c5.586 0 10.132 4.535 10.132 10.11s-4.545 10.11-10.132 10.11-10.132-4.535-10.132-10.11 4.545-10.11 10.132-10.11z"/><path d="m306.558 229.34c13.858 0 25.133-11.265 25.133-25.111s-11.274-25.111-25.133-25.111-25.133 11.265-25.133 25.111 11.274 25.111 25.133 25.111zm0-35.221c5.586 0 10.132 4.535 10.132 10.11s-4.545 10.11-10.132 10.11-10.132-4.535-10.132-10.11 4.545-10.11 10.132-10.11z"/><path d="m306.558 380.765c-13.858 0-25.133 11.265-25.133 25.111s11.274 25.111 25.133 25.111 25.133-11.265 25.133-25.111-11.275-25.111-25.133-25.111zm0 35.22c-5.586 0-10.132-4.535-10.132-10.11s4.545-10.11 10.132-10.11 10.132 4.535 10.132 10.11c-.001 5.575-4.546 10.11-10.132 10.11z"/></g></g></svg>