<svg id="Layer_1" enable-background="new 0 0 512 512" height="512" viewBox="0 0 512 512" width="512" xmlns="http://www.w3.org/2000/svg"><g><g><path d="m416.583 497.44.02.25c-9.53.8-21.38 1.7-35.1 2.58-32.35 2.07-75.17 3.98-122.78 3.98-103.55 0-185.39-9.05-185.39-9.05l-2.35-50.7 317.86 1.63 32.51.17s-1.57 28.22-4.77 51.14z" fill="#fff"/><path d="m416.583 497.44.02.25c-9.53.8-21.38 1.7-35.1 2.58 3.79-21.09 6.23-43.06 7.34-54.14l32.51.17s-1.57 28.22-4.77 51.14z" fill="#f4f1e1"/><path d="m444.133 444.4s-11.05 1.22-30.17 2.76c-32.92 2.67-89.73 6.29-155.22 6.29-54.41 0-102.83-2.5-136.53-4.88-30.43-2.13-48.86-4.17-48.86-4.17l-2.37.1c-9.3-231.15 2.37-427.96 2.37-427.96s18.12-2 48.09-4.12c33.73-2.39 82.47-4.92 137.3-4.92 65.28 0 121.93 3.59 154.89 6.25 19.32 1.56 30.5 2.79 30.5 2.79s-10.42 209.41 0 427.86z" fill="#c5ef7b"/><path d="m444.133 444.4s-11.05 1.22-30.17 2.76c-11.68-187.9-5.35-350.76-.33-433.41 19.32 1.56 30.5 2.79 30.5 2.79s-10.42 209.41 0 427.86z" fill="#81e276"/><path d="m371.173 169.97c-9.84-.78-19.93-1.41-30.07-1.92-72.61-3.67-147.56-1.08-147.56-1.08-5.57-30.5 0-61 0-61s74.25-2.56 146.54 1.03c10.48.52 20.92 1.17 31.09 1.97 0 0-4.14 28.56 0 61z" fill="#fff"/><path d="m371.173 169.97c-9.84-.78-19.93-1.41-30.07-1.92-2.95-23.36-2.46-44.66-1.02-61.05 10.48.52 20.92 1.17 31.09 1.97 0 0-4.14 28.56 0 61z" fill="#f4f1e1"/><path d="m122.213 448.57c-30.43-2.13-48.86-4.17-48.86-4.17l-2.37.1c-9.3-231.15 2.37-427.96 2.37-427.96s18.12-2 48.09-4.12l.09.6s-12.52 207.12 0 434.9z" fill="#8389aa"/></g><g><path d="m442.298 488.002c-.218.024-6.312.697-17.108 1.663 1.648-13.997 2.726-28.218 3.266-36.214 10.409-.93 16.283-1.57 16.5-1.594 3.937-.435 6.856-3.856 6.668-7.812-2.908-60.982-4.458-127.077-4.609-196.448-.009-4.137-3.365-7.484-7.5-7.484h-.017c-4.142.009-7.493 3.374-7.484 7.516.145 66.913 1.589 130.804 4.294 190.028-21.918 2.125-92.804 8.289-177.566 8.289-11.824 0-23.958-.12-36.064-.357-4.138-.063-7.564 3.21-7.646 7.352-.081 4.142 3.21 7.564 7.352 7.646 12.204.239 24.437.36 36.358.36 64.589 0 121.217-3.554 154.584-6.218-.62 8.777-1.756 22.96-3.404 36.226-32.928 2.624-87.991 6.045-151.18 6.045-85.607 0-157.059-6.288-178.206-8.352-.57-12.129-1.083-24.182-1.545-36.132 14.955 1.464 54.648 5.011 106.369 6.995.098.003.195.005.292.005 4.009 0 7.334-3.171 7.49-7.212.159-4.139-3.068-7.624-7.207-7.782-21.493-.824-40.882-1.92-57.243-3.021-10.672-201.068-1.883-386.781-.009-422.044 33.292-2.236 79.176-4.457 130.06-4.457 84.774 0 155.666 6.166 177.573 8.29-.974 22.287-3.825 94.822-4.257 188.794-.019 4.142 3.323 7.516 7.465 7.535h.035c4.126 0 7.48-3.335 7.5-7.465.519-112.706 4.523-194.424 4.564-195.236.197-3.961-2.725-7.392-6.667-7.827-.823-.092-83.44-9.091-186.213-9.091s-185.39 8.999-186.212 9.09c-3.644.403-6.463 3.38-6.665 7.041-.022.401-2.233 40.868-3.835 105.654-.103 4.141 3.171 7.581 7.312 7.683 4.169.077 7.581-3.171 7.683-7.312 1.229-49.713 2.817-85.022 3.492-98.802 6.549-.639 17.939-1.685 33.09-2.824-2.07 39.721-10.371 222.207.008 419.897-16.901-1.274-29.138-2.433-35.181-3.038-3.891-110.42-3.419-210.929-2.166-279.861.075-4.142-3.221-7.56-7.363-7.635-.046-.001-.093-.001-.139-.001-4.079 0-7.422 3.269-7.496 7.364-1.472 81.01-1.869 205.508 4.593 338.565.179 3.681 3.005 6.686 6.667 7.091.822.091 83.439 9.09 186.212 9.09 102.779 0 184.41-9 185.223-9.091 4.116-.46 7.08-4.171 6.62-8.288-.462-4.118-4.174-7.087-8.288-6.621z"/><path d="m231.187 112.717c4.142-.045 7.463-3.439 7.418-7.581-.044-4.142-3.457-7.437-7.581-7.418-22.613.245-37.589.756-37.738.761-3.522.122-6.485 2.68-7.119 6.147-.237 1.301-5.752 32.21 0 63.696.668 3.66 3.925 6.287 7.637 6.147.969-.034 97.817-3.276 176.772 2.981.198.016.396.023.593.023 2.042 0 4.007-.834 5.428-2.325 1.558-1.634 2.297-3.883 2.012-6.123-3.945-30.969-.057-58.705-.017-58.978.297-2.052-.269-4.135-1.563-5.755s-3.201-2.632-5.268-2.796c-29.165-2.311-63.724-3.612-102.716-3.867-4.127-.049-7.522 3.309-7.549 7.451s3.309 7.521 7.451 7.549c35.237.229 66.782 1.319 93.914 3.241-.854 9.509-1.787 26.544-.103 45.957-65.748-4.568-140.477-3.125-162.83-2.542-2.493-18.821-.973-36.955.139-46.001 6.39-.169 17.314-.418 31.12-.567z"/><path d="m371.762 255.274c-79.793-6.323-177.497-3.053-178.474-3.019-4.14.143-7.38 3.615-7.237 7.754.144 4.14 3.643 7.372 7.754 7.237.97-.033 97.819-3.275 176.772 2.981.202.016.402.024.601.024 3.873 0 7.157-2.98 7.468-6.908.328-4.129-2.755-7.742-6.884-8.069z"/><path d="m222.522 311.989c.038 0 .076 0 .113-.001 30.03-.442 75.08-.495 119.172 1.77.131.007.261.01.391.01 3.965 0 7.278-3.11 7.484-7.115.212-4.137-2.969-7.663-7.105-7.875-44.501-2.285-89.907-2.233-120.163-1.787-4.142.061-7.45 3.468-7.389 7.609.061 4.104 3.407 7.389 7.497 7.389z"/><path d="m186.051 350.396c.143 4.139 3.593 7.371 7.754 7.237.755-.026 76.238-2.56 148.012 1.126.131.007.261.01.391.01 3.965 0 7.278-3.11 7.484-7.115.212-4.137-2.969-7.663-7.105-7.875-72.438-3.721-148.54-1.163-149.299-1.137-4.14.142-7.38 3.614-7.237 7.754z"/><path d="m371.165 345.637c-4.143 0-7.501 3.358-7.501 7.501s3.358 7.501 7.501 7.501 7.501-3.358 7.501-7.501c.001-4.142-3.358-7.501-7.501-7.501z"/></g></g></svg>