<svg height="511pt" viewBox="-10 0 511 511.99952" width="511pt" xmlns="http://www.w3.org/2000/svg"><path d="m352.714844 504.5h-277.160156c-16.339844 0-29.582032-13.246094-29.582032-29.585938v-14.246093c0-49.226563 39.90625-89.136719 89.136719-89.136719h158.054687c49.226563 0 89.136719 39.910156 89.136719 89.136719v14.246093c0 16.339844-13.246093 29.585938-29.585937 29.585938zm0 0" fill="#5972a5"/><path d="m145.1875 357.039062h137.894531v147.460938h-137.894531zm0 0" fill="#b0f0ef"/><path d="m294.855469 392.800781c0-32.980469-36.136719-59.71875-80.71875-59.71875s-80.722657 26.738281-80.722657 59.71875 36.140626 59.714844 80.722657 59.714844 80.71875-26.734375 80.71875-59.714844zm0 0" fill="#ff9a5c"/><path d="m115.734375 365.761719s-26.570313 3.527343-47.777344 21.109375c-9 7.460937-6.765625 21.839844 4.046875 26.285156 14.882813 6.117188 32.585938 13.660156 32.585938 13.660156l-9.265625 12.96875c-6.597657 9.242188-5.40625 21.929688 2.796875 29.78125l36.507812 34.933594h50.238282s-15.34375-112.574219-69.132813-138.738281zm0 0" fill="#7888af"/><path d="m312.535156 365.761719s26.574219 3.527343 47.78125 21.109375c9 7.460937 6.761719 21.839844-4.050781 26.285156-14.878906 6.117188-32.585937 13.660156-32.585937 13.660156l9.265624 12.96875c6.601563 9.242188 5.410157 21.929688-2.796874 29.78125l-36.503907 34.933594h-50.238281s15.34375-112.574219 69.128906-138.738281zm0 0" fill="#7888af"/><path d="m93.523438 277.585938c0 23.617187-19.144532 42.757812-42.757813 42.757812-23.617187 0-42.757813-19.140625-42.757813-42.757812 0-23.613282 19.140626-42.757813 42.757813-42.757813 23.613281 0 42.757813 19.144531 42.757813 42.757813zm0 0" fill="#ff9a5c"/><path d="m420.265625 277.585938c0 23.617187-19.144531 42.757812-42.761719 42.757812-23.613281 0-42.757812-19.140625-42.757812-42.757812 0-23.613282 19.144531-42.757813 42.757812-42.757813 23.617188 0 42.761719 19.144531 42.761719 42.757813zm0 0" fill="#ffbd86"/><path d="m229.652344 412.328125h-31.03125c-81.320313 0-147.855469-66.535156-147.855469-147.851563v-67.929687c0-89.851563 73.515625-163.371094 163.371094-163.371094 89.851562 0 163.367187 73.519531 163.367187 163.371094v67.929687c0 81.316407-66.53125 147.851563-147.851562 147.851563zm0 0" fill="#fed2a4"/><path d="m128.988281 300.699219c-7.621093-40.347657 4.835938-81.640625 32.117188-112.328125 40.574219-45.636719 53.03125-155.1875 53.03125-155.1875-89.855469 0-163.371094 73.515625-163.371094 163.367187v67.929688c0 80.765625 65.652344 146.949219 146.214844 147.84375-42.992188-35.605469-61.316407-76.285157-67.992188-111.625zm0 0" fill="#ffbd86"/><path d="m150.113281 302.429688c0-13.183594-13.421875-23.871094-29.972656-23.871094-16.554687 0-29.972656 10.6875-29.972656 23.871094 0 13.183593 13.417969 23.867187 29.972656 23.867187 16.550781 0 29.972656-10.683594 29.972656-23.867187zm0 0" fill="#ff89ca"/><path d="m338.105469 302.429688c0-13.183594-13.421875-23.871094-29.972657-23.871094-16.554687 0-29.972656 10.6875-29.972656 23.871094 0 13.183593 13.417969 23.867187 29.972656 23.867187 16.550782 0 29.972657-10.683594 29.972657-23.867187zm0 0" fill="#ff89ca"/><path d="m58.878906 289.328125c-11.425781 0-20.6875-9.261719-20.6875-20.6875v-82.214844h41.375v82.214844c-.003906 11.425781-9.265625 20.6875-20.6875 20.6875zm0 0" fill="#dd6642"/><path d="m369.394531 289.328125c-11.425781 0-20.6875-9.261719-20.6875-20.6875v-82.214844h41.375v82.214844c0 11.425781-9.261719 20.6875-20.6875 20.6875zm0 0" fill="#dd6642"/><path d="m230.148438 124.027344s49.617187 115.953125 168.570312 79.09375c10.019531-3.105469 12.828125-16.15625 4.808594-22.914063-6.261719-5.277343-12.386719-13.144531-16.664063-24.871093-12.847656-35.175782-37.871093-82.3125-65.726562-81.980469-45.832031.542969-90.988281 50.671875-90.988281 50.671875zm0 0" fill="#e7896e"/><path d="m321.136719 73.355469c-45.832031.542969-90.988281 50.671875-90.988281 50.671875s20.804687 48.621094 67.773437 72.886718c46.402344-31.660156 52.863281-78.117187 50.984375-109.050781-8.648438-8.945312-18.035156-14.625-27.769531-14.507812zm0 0" fill="#dd6642"/><path d="m321.136719 74.585938s-45.234375 147.054687-186.621094 147.054687c-67.882813 0-101.703125-18.667969-118.347656-35.222656-8.832031-8.78125-6.300781-23.84375 4.953125-29.171875 9.625-4.550782 20.867187-13.820313 29.644531-32.515625 19.203125-40.90625 45.0625-118.65625 141.699219-117.210938 96.640625 1.445313 128.671875 67.066407 128.671875 67.066407zm0 0" fill="#f2ad9a"/><path d="m448.109375 22.726562 7.960937 16.128907 17.796876 2.585937c10.558593 1.535156 14.773437 14.507813 7.136718 21.957032l-12.882812 12.554687 3.042968 17.726563c1.800782 10.515624-9.234374 18.535156-18.679687 13.570312l-15.917969-8.371094-15.921875 8.371094c-9.441406 4.964844-20.480469-3.054688-18.675781-13.570312l3.039062-17.726563-12.878906-12.554687c-7.640625-7.449219-3.425781-20.421876 7.132813-21.957032l17.800781-2.585937 7.957031-16.128907c4.726563-9.566406 18.367188-9.566406 23.089844 0zm0 0" fill="#f4e74d"/><path d="m176.019531 8.074219c-83.214843 7.097656-107.191406 78.179687-125.253906 116.65625-8.773437 18.695312-20.019531 27.964843-29.640625 32.515625-11.257812 5.328125-13.789062 20.390625-4.957031 29.171875 14.035156 13.957031 40.277343 29.414062 88.851562 33.925781 6.675781-15.691406 13.4375-42.011719 15.121094-85.441406 3.550781-91.570313 55.289063-126.4375 55.878906-126.828125zm0 0" fill="#e7896e"/><path d="m186.621094 289.128906c8.101562 6.285156 17.808594 9.425782 27.515625 9.425782s19.414062-3.140626 27.511719-9.425782c3.273437-2.539062 3.867187-7.25 1.328124-10.523437-2.535156-3.273438-7.25-3.867188-10.519531-1.328125-10.789062 8.367187-25.855469 8.367187-36.640625 0-3.273437-2.539063-7.984375-1.945313-10.523437 1.328125-2.539063 3.273437-1.945313 7.984375 1.328125 10.523437zm0 0"/><path d="m117.96875 286.316406c3.460938 2.277344 8.113281 1.3125 10.386719-2.148437 1.640625-2.496094 4.128906-2.765625 5.121093-2.765625.996094 0 3.445313.296875 5.125 2.765625 3.503907 5.140625 9.117188 2.984375 10.386719 2.148437 3.460938-2.273437 4.421875-6.921875 2.148438-10.386718-3.917969-5.964844-10.519531-9.527344-17.660157-9.527344-7.136718 0-13.738281 3.5625-17.660156 9.527344-2.269531 3.460937-1.308594 8.113281 2.152344 10.386718zm0 0"/><path d="m279.285156 286.316406c3.460938 2.273438 8.109375 1.3125 10.382813-2.148437 1.640625-2.496094 4.128906-2.765625 5.125-2.765625.992187 0 3.441406.296875 5.121093 2.765625 3.503907 5.140625 9.117188 2.984375 10.386719 2.148437 3.460938-2.273437 4.425781-6.921875 2.152344-10.386718-3.921875-5.964844-10.523437-9.527344-17.660156-9.527344-7.140625 0-13.742188 3.5625-17.660157 9.527344-2.273437 3.460937-1.3125 8.113281 2.152344 10.386718zm0 0"/><path d="m491.390625 47.882812c-2.414063-7.425781-8.714844-12.742187-16.441406-13.863281l-13.898438-2.019531-6.214843-12.59375c-3.457032-7.003906-10.457032-11.355469-18.269532-11.355469s-14.8125 4.351563-18.269531 11.355469l-6.214844 12.59375-13.894531 2.019531c-7.730469 1.121094-14.03125 6.4375-16.445312 13.863281-2.414063 7.429688-.441407 15.433594 5.152343 20.882813l10.058594 9.804687-2.375 13.839844c-1.320313 7.699219 1.785156 15.335938 8.105469 19.925782 3.570312 2.59375 7.746094 3.914062 11.953125 3.914062 3.238281 0 6.492187-.78125 9.5-2.363281l12.429687-6.535157 12.429688 6.535157c6.917968 3.636719 15.136718 3.039062 21.457031-1.550781 6.316406-4.589844 9.425781-12.226563 8.101563-19.925782l-2.371094-13.839844 10.054687-9.804687c5.59375-5.449219 7.570313-13.453125 5.152344-20.882813zm-15.625 10.144532-12.878906 12.554687c-1.765625 1.722657-2.574219 4.207031-2.15625 6.636719l3.039062 17.730469c.511719 2.96875-1.324219 4.664062-2.136719 5.253906-.808593.589844-2.988281 1.808594-5.65625.40625l-15.921874-8.367187c-2.183594-1.148438-4.792969-1.148438-6.976563 0l-15.921875 8.367187c-2.667969 1.402344-4.847656.183594-5.65625-.40625-.8125-.589844-2.648438-2.285156-2.136719-5.253906l3.039063-17.730469c.417968-2.429688-.390625-4.914062-2.15625-6.636719l-12.878906-12.554687c-2.160157-2.105469-1.671876-4.550782-1.359376-5.507813.308594-.953125 1.355469-3.222656 4.335938-3.65625l17.796875-2.585937c2.445313-.355469 4.558594-1.886719 5.648437-4.101563l7.960938-16.128906c1.332031-2.703125 3.8125-2.996094 4.816406-2.996094s3.484375.292969 4.816406 2.996094l7.960938 16.128906c1.09375 2.210938 3.203125 3.746094 5.648438 4.101563l17.796874 2.585937c2.984376.433594 4.027344 2.703125 4.335938 3.65625.3125.957031.800781 3.402344-1.359375 5.507813zm0 0"/><path d="m397.582031 231.515625v-20.226563c1.113281-.320312 14.390625-2.136718 17.679688-16.886718 1.675781-7.519532-1.050781-15-6.902344-19.933594-6.257813-5.269531-11.117187-12.574219-14.453125-21.703125-7.234375-19.808594-33.039062-82.898437-69.046875-86.730469-4.128906-6.570312-12.691406-18.375-27.042969-30.222656-19.257812-15.898438-53.140625-35.011719-105.238281-35.7929688-48.621094-.7148432-85.730469 17.3007808-113.4375 55.1093748-2.449219 3.339844-1.726563 8.035156 1.617187 10.484375 3.339844 2.445313 8.03125 1.722657 10.480469-1.617187 24.628907-33.605469 57.703125-49.636719 101.113281-48.976563 38.019532.566407 70.085938 11.292969 95.320313 31.875 14.324219 11.683594 22.269531 23.414063 25.289063 28.441407-3.320313 9.3125-15.039063 39.128906-38.308594 68.519531-16.226563 20.488281-34.832032 36.785156-55.300782 48.441406-25.46875 14.496094-54.007812 21.84375-84.835937 21.84375-65.984375 0-97.902344-17.964844-113.0625-33.039063-2.46875-2.457031-3.542969-5.863281-2.941406-9.34375.589843-3.445312 2.710937-6.261718 5.816406-7.730468 13.882813-6.566406 25.0625-18.71875 33.226563-36.109375 1.660156-3.535157 3.347656-7.300781 5.136718-11.28125 3.667969-8.175781 7.828125-17.441407 12.660156-26.703125 1.914063-3.675782.492188-8.203125-3.179687-10.121094-3.675781-1.914062-8.203125-.488281-10.121094 3.183594-5.035156 9.652344-9.289062 19.132812-13.042969 27.496094-1.761718 3.921874-3.425781 7.628906-5.03125 11.050781-6.644531 14.15625-15.414062 23.886719-26.0625 28.921875-7.472656 3.535156-12.773437 10.546875-14.1875 18.75-1.417968 8.242187 1.257813 16.660156 7.152344 22.523437 5.886719 5.851563 12.574219 10.828125 19.808594 15.054688v24.722656c-22.238281 9.675781-34.832031 34.390625-28.59375 58.609375 3.351562 13 15.632812 39.039062 54.621094 37.367188 6.644531 14.847656 15.617187 28.640624 26.605468 40.828124-7.464843 3.597657-14.0625 8.0625-20.152343 12.773438-15.125 11.707031-7.632813 23.273438-7.332031 24.296875-11.371094 16.25-17.367188 35.265625-17.367188 55.277344v14.246093c0 20.449219 16.636719 37.085938 37.085938 37.085938h277.160156c20.445312 0 37.082031-16.636719 37.082031-37.085938v-14.246093c0-10.820313-1.777344-21.449219-5.28125-31.589844-1.351563-3.914063-5.621094-5.988281-9.539063-4.636719-3.914062 1.351563-5.992187 5.625-4.636718 9.539063 2.957031 8.558593 4.457031 17.539062 4.457031 26.6875v14.246093c0 12.175782-9.90625 22.085938-22.082031 22.085938h-40.386719l23.007813-22.015625c10.824218-10.359375 12.421874-27.367187 3.710937-39.558594l-3.824219-5.355469c6.496094-2.742187 15.664063-6.59375 23.894532-9.980468 7.550781-3.101563 12.792968-9.777344 14.023437-17.855469 1.226563-8.050781-1.78125-15.953125-8.039063-21.140625-5.925781-4.914062-12.6875-9.175781-20.148437-12.773438 10.980469-12.183593 19.949219-25.980468 26.59375-40.828124 36.636719.765624 52.257813-24.152344 54.617187-37.367188 6.332032-35.5-18.921874-54.421875-28.582031-58.609375zm-15 37.125c0 7.269531-5.917969 13.1875-13.191406 13.1875-7.269531 0-13.183594-5.917969-13.183594-13.1875v-50.78125c8.355469-.160156 17.144531-1.085937 26.375-2.910156zm-55.933593-186.996094c19.484374 5.609375 40.300781 41.027344 53.167968 76.265625 4.242188 11.617188 10.59375 21.050782 18.878906 28.03125 2.292969 1.933594 2.070313 4.480469 1.863282 5.484375-.441406 2.1875-1.960938 3.878907-4.0625 4.53125-28.664063 8.882813-55.511719 9.167969-79.796875.851563-16.023438-5.488282-30.9375-14.6875-44.449219-27.375 5.003906-5.230469 34.851562-36.953125 54.398438-87.789063zm-65.148438 98.273438c18.683594 17.683593 44.992188 34.183593 79.707031 37.402343v51.320313c0 14.480469 10.976563 26.4375 25.046875 28.007813-6.84375 28.832031-22.871094 55.058593-45.742187 74.574218-25.394531 21.671875-57.664063 33.605469-90.859375 33.605469h-31.035156c-33.390626 0-65.804688-12.0625-91.273438-33.960937-22.667969-19.492188-38.523438-45.566407-45.324219-74.21875 14.066407-1.570313 25.042969-13.527344 25.042969-28.007813v-43.070313c16.519531 2.679688 32.949219 3.570313 47.453125 3.570313 48.128906 0 91.421875-16.90625 126.984375-49.222656zm-70.222656 317.082031c-1.429688-8.351562-4.441406-23.847656-9.660156-41.679688 10.273437 3.085938 21.285156 4.695313 32.519531 4.695313 11.242187 0 22.246093-1.605469 32.519531-4.695313-5.222656 17.832032-8.234375 33.328126-9.664062 41.679688zm61.246094-59.804688c-11.542969 5.121094-24.726563 7.820313-38.386719 7.820313-13.648438 0-26.847657-2.695313-38.390625-7.8125-2.441406-6.835937-5.203125-13.769531-8.3125-20.570313 10.203125 2.109376 20.648437 3.195313 31.183594 3.195313h31.035156c10.53125 0 20.980468-1.089844 31.1875-3.199219-3.109375 6.800782-5.871094 13.734375-8.316406 20.566406zm-180.460938-214.589843v46.035156c0 7.269531-5.914062 13.1875-13.1875 13.1875-7.269531 0-13.1875-5.917969-13.1875-13.1875v-54.421875c8.449219 3.527344 17.34375 6.265625 26.375 8.386719zm-55.441406 63.777343c-5.769532-22.453124 9.925781-34.933593 14.066406-37.796874v20.054687c0 10.925781 6.257812 20.414063 15.367188 25.089844 1.253906 6.492187 2.917968 12.882812 4.980468 19.128906-6.335937.058594-28.738281-4.378906-34.414062-26.476563zm36.851562 188.53125v-14.246093c0-15.222657 4.117188-29.761719 11.945313-42.527344 1.167969.75 21.132812 9.1875 27.628906 11.929687l-3.824219 5.355469c-8.710937 12.195313-7.113281 29.199219 3.710938 39.558594l23.007812 22.015625h-40.386718c-12.175782 0-22.082032-9.910156-22.082032-22.085938zm84.164063 22.085938-34.332031-32.851562c-5.472657-5.238282-6.28125-13.839844-1.875-20.003907l9.261718-12.972656c1.320313-1.847656 1.734375-4.199219 1.117188-6.386719-.613282-2.1875-2.1875-3.980468-4.28125-4.871094-.175782-.074218-17.917969-7.628906-32.671875-13.695312-3.796875-1.5625-4.6875-4.882812-4.894531-6.238281-.203126-1.34375-.34375-4.746094 2.78125-7.335938 6.21875-5.15625 13.578124-9.507812 21.902343-12.984375.960938.871094 19.941407 18.710938 53.386719 31.628906 16.621094 30.667969 24.9375 68.953126 27.992188 85.710938zm220.671875-97.019531c-.203125 1.355469-1.09375 4.675781-4.894532 6.238281-14.753906 6.066406-32.496093 13.621094-32.671874 13.695312-2.089844.890626-3.667969 2.683594-4.28125 4.871094-.613282 2.1875-.203126 4.539063 1.117187 6.386719l9.265625 12.972656c4.402344 6.164063 3.59375 14.765625-1.878906 20.003907l-34.332032 32.851562h-38.386718c3.046875-16.75 11.347656-55.003906 28-85.71875 33.4375-13.347656 52.265625-30.617188 53.378906-31.621094 8.328125 3.476563 15.683594 7.828125 21.90625 12.984375 3.121094 2.589844 2.984375 5.992188 2.777344 7.335938zm53.332031-113.597657c-5.023437 23.464844-28.074219 26.53125-34.410156 26.472657 2.066406-6.246094 3.738281-12.636719 4.992187-19.128907 9.105469-4.679687 15.359375-14.164062 15.359375-25.089843v-20.046875c4.136719 2.867187 18.910157 15.109375 14.058594 37.792968zm0 0"/></svg>