<svg height="512" viewBox="0 0 512 512" width="512" xmlns="http://www.w3.org/2000/svg"><g><g><g><path d="m496 344v28a19.994 19.994 0 0 1 -20 20h-440a19.994 19.994 0 0 1 -20-20v-28z" fill="#d8d7da"/><path d="m496 76v268h-480v-268a19.994 19.994 0 0 1 20-20h440a19.994 19.994 0 0 1 20 20z" fill="#57a4ff"/><path d="m312 432h-112l8-40h96z" fill="#787680"/><path d="m160 432h192v24h-192z" fill="#d8d7da"/></g><circle cx="256" cy="208" fill="#ffda44" r="72"/></g><g><path d="m476 48h-440a28.031 28.031 0 0 0 -28 28v296a28.031 28.031 0 0 0 28 28h162.24l-4.8 24h-33.44a8 8 0 0 0 -8 8v16h-48a8 8 0 0 0 0 16h272a8 8 0 0 0 0-16h-16v-16a8 8 0 0 0 -8-8h-33.44l-4.8-24h162.24a28.031 28.031 0 0 0 28-28v-296a28.031 28.031 0 0 0 -28-28zm-132 392v8h-176v-8zm-134.24-16 4.8-24h82.88l4.8 24zm278.24-52a12.01 12.01 0 0 1 -12 12h-440a12.01 12.01 0 0 1 -12-12v-20h464zm0-36h-464v-260a12.01 12.01 0 0 1 12-12h440a12.01 12.01 0 0 1 12 12z"/><path d="m264 360h-16a8 8 0 0 0 0 16h16a8 8 0 0 0 0-16z"/><path d="m408 448h-8a8 8 0 0 0 0 16h8a8 8 0 0 0 0-16z"/><path d="m228 244a7.974 7.974 0 0 0 5.657-2.343l56-56a8 8 0 0 0 -11.314-11.314l-56 56a8 8 0 0 0 5.657 13.657z"/><circle cx="232" cy="184" r="8"/><circle cx="280" cy="232" r="8"/><path d="m256 288a80 80 0 1 0 -80-80 80.091 80.091 0 0 0 80 80zm0-144a64 64 0 1 1 -64 64 64.072 64.072 0 0 1 64-64z"/><path d="m48 96h56a8 8 0 0 0 0-16h-56a8 8 0 0 0 0 16z"/><path d="m128 96h8a8 8 0 0 0 0-16h-8a8 8 0 0 0 0 16z"/></g></g></svg>