<svg id="Layer_1" enable-background="new 0 0 512 512" height="512" viewBox="0 0 512 512" width="512" xmlns="http://www.w3.org/2000/svg"><g><g><g><g><g><g><g><path d="m365.964 504.502h-220.046s42.559-26.91 67.114-83.689h85.818c24.555 56.779 67.114 83.689 67.114 83.689z" fill="#c7cde0"/><path d="m365.964 504.502h-49.91c-22.275-20.94-48.13-62.639-55.381-83.689h38.178c24.554 56.779 67.113 83.689 67.113 83.689z" fill="#b1accc"/><path d="m499.356 373.679c-.95 13.99-2.07 28.13-3.361 42.34 0 0-13.083.55-35.257 1.27-43.409 1.42-121.685 3.52-204.792 3.52-125.546 0-240.05-4.79-240.05-4.79-.66-7.24-1.27-14.46-1.84-21.65-.55-6.93-1.05-13.83-1.52-20.69-13.284-193.488 3.36-361.387 3.36-361.387s114.504-4.79 240.05-4.79c81.357 0 158.083 2.01 202.002 3.42v.01c3.211.1 6.241.2 9.092.3 18.334.61 28.956 1.06 28.956 1.06s16.643 167.899 3.36 361.387z" fill="#ff7878"/></g></g><path d="m499.356 373.679c-.95 13.99-2.07 28.13-3.361 42.34 0 0-13.083.55-35.257 1.27-43.409 1.42-121.685 3.52-204.792 3.52-125.546 0-240.05-4.79-240.05-4.79-.66-7.24-1.27-14.46-1.84-21.65-.55-6.93-1.05-13.83-1.52-20.69 1.41.06 118.605 4.8 243.4 4.8 82.817 0 162.294-2.09 206.793-3.51 22.965-.73 36.618-1.29 36.618-1.29z" fill="#8389aa"/><path d="m499.356 373.679c-.95 13.99-2.07 28.13-3.361 42.34 0 0-13.083.55-35.257 1.27 10.802-202.848 1.19-356.087-2.791-406.357 3.211.1 6.241.2 9.092.3 18.334.61 28.956 1.06 28.956 1.06s16.644 167.899 3.361 361.387z" fill="#f4536f"/><path d="m499.356 373.679c-.95 13.99-2.07 28.13-3.361 42.34 0 0-13.083.55-35.257 1.27.76-14.36 1.42-28.48 1.99-42.32 22.965-.73 36.618-1.29 36.618-1.29z" fill="#646d91"/></g></g></g><path d="m240.534 198.238s-68.98 64.29-146.67 105.17c-.08-2.54-.15-5.08-.22-7.61-2.3-85.63-.61-169.58.02-194.98.12-5.03.2-7.76.2-7.76 82.43 47.27 146.67 105.18 146.67 105.18z" fill="#fff"/><path d="m240.534 198.238s-68.98 64.29-146.67 105.17c-.08-2.54-.15-5.08-.22-7.61 60-42.31 106.89-97.56 106.89-97.56s-44.46-52.54-106.87-97.42c.12-5.03.2-7.76.2-7.76 82.43 47.27 146.67 105.18 146.67 105.18z" fill="#f4f1e1"/></g><g><path d="m503.516 11.554c-.369-3.718-3.418-6.597-7.152-6.754-1.147-.048-116.099-4.8-240.364-4.8-33.09 0-68.438.335-105.063.995-4.143.075-7.44 3.493-7.366 7.634.075 4.141 3.474 7.4 7.635 7.364 36.537-.659 71.795-.993 104.794-.993 107.002 0 207.08 3.533 233.171 4.529 2.784 32.255 14.053 180.05 3.206 346.92-26.777.996-129.347 4.529-236.377 4.529-107.018 0-209.598-3.534-236.377-4.53-10.847-166.868.422-314.665 3.206-346.92 13.587-.521 47.22-1.731 91.141-2.762 4.142-.097 7.421-3.533 7.324-7.674-.097-4.142-3.576-7.415-7.676-7.322-57.608 1.353-97.585 3.014-97.981 3.03-3.734.157-6.783 3.036-7.152 6.754-.191 1.938-18.992 196.189-.005 405.14.34 3.744 3.399 6.657 7.157 6.815.189.008 19.357.806 49.997 1.738.078.002.155.003.233.003 4.038 0 7.371-3.209 7.494-7.272.126-4.14-3.129-7.599-7.269-7.725-20.063-.61-35.184-1.163-43.253-1.472-.797-9.132-1.521-18.232-2.179-27.285 29.163 1.073 130.108 4.481 235.341 4.481s206.178-3.408 235.341-4.481c-.658 9.053-1.382 18.152-2.179 27.284-26.106.997-126.163 4.529-233.163 4.529-47.827 0-99.447-.688-153.424-2.043-.064-.002-.128-.002-.193-.002-4.056 0-7.393 3.235-7.496 7.312-.104 4.141 3.17 7.582 7.311 7.686 34.136.857 67.334 1.448 99.233 1.767-23.625 46.926-59.096 69.896-59.467 70.133-2.822 1.784-4.125 5.219-3.196 8.425.929 3.207 3.866 5.414 7.206 5.414h128.912c4.143 0 7.502-3.358 7.502-7.5s-3.358-7.5-7.502-7.5h-107.315c14.582-13.146 35.277-35.822 50.445-68.829 12.899.092 25.569.138 37.985.138 12.798 0 25.497-.05 37.982-.141 15.167 33.009 35.864 55.686 50.447 68.832h-34.313c-4.143 0-7.502 3.358-7.502 7.5s3.358 7.5 7.502 7.5h55.908c3.335 0 6.265-2.204 7.198-5.406.932-3.201-.365-6.637-3.179-8.427-.381-.242-35.855-23.214-59.479-70.143 101.42-1.026 184.823-4.474 185.799-4.515 3.758-.158 6.817-3.071 7.157-6.815 18.985-208.952.186-403.203-.005-405.141z"/><path d="m92.499 177.316h-.031c-4.129 0-7.484 3.338-7.501 7.47-.172 42.755.285 82.743 1.361 118.852.077 2.586 1.483 4.95 3.718 6.254 1.166.681 2.473 1.022 3.781 1.022 1.199 0 2.399-.287 3.493-.863 77.696-40.877 147.625-105.678 148.322-106.328 1.539-1.434 2.405-3.446 2.387-5.548-.018-2.103-.917-4.101-2.478-5.508-.649-.584-65.794-58.99-147.993-106.112-2.286-1.311-5.094-1.326-7.395-.039-2.3 1.287-3.756 3.687-3.835 6.322-.007.234-.702 23.857-1.108 59.252-.047 4.142 3.273 7.538 7.416 7.585 4.141.072 7.539-3.272 7.588-7.414.227-19.851.545-35.975.781-46.315 61.231 36.491 111.17 77.765 128.215 92.383-17.486 15.485-69.761 59.987-128.23 92.666-.829-32.682-1.171-68.321-1.019-106.148.016-4.143-3.329-7.514-7.472-7.531z"/><path d="m303.472 108.013h129.258c4.144 0 7.502-3.358 7.502-7.5s-3.358-7.5-7.502-7.5h-129.258c-4.144 0-7.502 3.358-7.502 7.5s3.358 7.5 7.502 7.5z"/><path d="m303.472 156.876h129.258c4.144 0 7.502-3.358 7.502-7.5s-3.358-7.5-7.502-7.5h-129.258c-4.144 0-7.502 3.358-7.502 7.5s3.358 7.5 7.502 7.5z"/><path d="m303.472 205.738h129.258c4.144 0 7.502-3.358 7.502-7.5s-3.358-7.5-7.502-7.5h-129.258c-4.144 0-7.502 3.358-7.502 7.5s3.358 7.5 7.502 7.5z"/><path d="m303.472 254.601h129.258c4.144 0 7.502-3.358 7.502-7.5s-3.358-7.5-7.502-7.5h-129.258c-4.144 0-7.502 3.358-7.502 7.5s3.358 7.5 7.502 7.5z"/><path d="m303.472 303.463h129.258c4.144 0 7.502-3.358 7.502-7.5s-3.358-7.5-7.502-7.5h-129.258c-4.144 0-7.502 3.358-7.502 7.5s3.358 7.5 7.502 7.5z"/></g></g></svg>