<svg id="Layer_1" enable-background="new 0 0 512 512" height="512" viewBox="0 0 512 512" width="512" xmlns="http://www.w3.org/2000/svg"><g><g><path d="m429.063 447.059c-16.26 14.93-38.18 34.43-64.32 56.23-15.68.38-31.2.66-46.43.85-127.51 1.6-234.05-3.01-234.05-3.01-7.34-262.41 0-490.3 0-490.3s154.34-6.68 313.82-1.17c9.88.34 19.78.73 29.66 1.17 0 0 6.36 197.36 1.32 436.23z" fill="#c7cde0"/><path d="m429.063 447.059c-16.26 14.93-38.18 34.43-64.32 56.23-15.68.38-31.2.66-46.43.85 48.36-37.9 82.25-70.56 82.25-70.56 4.75-159.51-.69-367.13-2.48-423.92 9.88.34 19.78.73 29.66 1.17 0 0 6.36 197.36 1.32 436.23z" fill="#b1accc"/><path d="m386.003 272.029c-8.88.2-17.74.38-26.56.52-7.95.14-15.85.26-23.69.35-61.09.76-118.37.46-159.68-.01-21.66-.25-38.93-.54-50.07-.76.11-126.56 2.42-214.01 2.42-214.01s19.29-1.02 50.23-1.88c38.71-1.06 95.66-1.88 155.85-.14 7.26.21 14.57.46 21.9.76 9.05.35 18.12.77 27.18 1.26 0 0 2.31 87.41 2.42 213.91z" fill="#8389aa"/><path d="m386.003 272.029c-8.88.2-17.74.38-26.56.52-.17-83.47-1.73-163.22-3.04-215.69 9.05.35 18.12.77 27.18 1.26 0 0 2.31 87.41 2.42 213.91z" fill="#646d91"/><path d="m336.003 272.749-.25.15c-9.7.12-19.3.21-28.76.28-50.12.38-96.17.11-130.92-.29l-.07-.05c.07-127.73 1.49-216 1.49-216l1.16-.6c32.42-.89 77.65-1.61 126.85-.79 9.54.15 19.23.37 29 .65l.01.01c0 0 1.42 88.95 1.49 216.64z" fill="#99f8ff"/><path d="m334.513 56.109s1.42 88.95 1.49 216.64l-.25.15c-9.7.12-19.3.21-28.76.28-.13-106.84-1.08-187.61-1.49-217.73 9.54.15 19.23.37 29 .65z" fill="#92d3f7"/><g><path d="m236.024 368.855s-13.689-.968-34.723-1.372c-.404-21.033-1.372-34.723-1.372-34.723-17.835-1.722-32.194 0-32.194 0s-.967 13.681-1.372 34.704c-10.995.206-22.718.633-34.723 1.39 0 0-1.722 14.359 0 32.194 11.999.757 23.715 1.184 34.705 1.39.206 10.99.633 22.706 1.39 34.705 0 0 14.359 1.722 32.194 0 .757-12.005 1.185-23.728 1.39-34.723 21.023-.405 34.705-1.372 34.705-1.372 1.722-17.834 0-32.193 0-32.193z" fill="#8389aa"/><circle cx="354.242" cy="351.012" fill="#ff7878" r="15"/></g></g><g><path d="m435.235 10.584c-.126-3.918-3.248-7.078-7.163-7.251-167.814-7.46-342.386-.077-344.13-.002-3.919.17-7.045 3.331-7.172 7.252-.007.206-.674 21.084-1.396 56.706-.084 4.142 3.205 7.567 7.347 7.651 4.12.048 7.566-3.205 7.65-7.346.478-23.572.931-40.659 1.184-49.55 33.576-1.258 182.859-6.156 328.894-.026.734 25.939 3.175 122.04 3.049 248.958-.004 4.143 3.351 7.504 7.493 7.508h.007c4.139 0 7.496-3.353 7.5-7.493.147-148.796-3.229-255.349-3.263-256.407z"/><path d="m430.918 298.515c-.013 0-.026 0-.039 0-4.124 0-7.478 3.333-7.499 7.462-.237 46.803-.826 93.129-1.748 137.742-19.097 17.462-39.154 34.988-59.688 52.155-78.076 1.868-152.104 1.064-200.676.054-.054-.001-.106-.002-.159-.002-4.069 0-7.41 3.256-7.496 7.344-.086 4.142 3.201 7.569 7.342 7.655 27.375.57 62.803 1.074 102.496 1.074 31.748 0 66.227-.322 101.476-1.191 1.691-.042 3.318-.654 4.617-1.737 22.265-18.561 43.996-37.558 64.59-56.462 1.507-1.384 2.383-3.322 2.427-5.367.963-45.679 1.575-93.182 1.818-141.188.022-4.143-3.319-7.517-7.461-7.539z"/><path d="m120.063 494.894c-12.707-.376-22.459-.723-28.493-.951-4.186-154.646-3.338-296.609-1.872-389.04.066-4.142-3.238-7.553-7.38-7.619-.041-.001-.081-.001-.122-.001-4.086 0-7.432 3.28-7.497 7.381-1.491 93.974-2.342 239.081 2.069 396.705.11 3.934 3.241 7.114 7.173 7.284.131.006 13.395.576 35.677 1.236.076.002.151.003.226.003 4.039 0 7.373-3.214 7.493-7.279.123-4.14-3.134-7.596-7.274-7.719z"/><path d="m275.418 62.629h.039c4.124 0 7.478-3.333 7.499-7.462.021-4.143-3.32-7.518-7.462-7.538-81.648-.404-146.812 2.967-147.46 3.001-3.907.205-7 3.38-7.104 7.291-.023.875-2.318 89.002-2.423 214.215-.003 4.088 3.268 7.425 7.354 7.505 24.781.48 73.534 1.246 132.469 1.246 39.434 0 83.429-.343 127.838-1.344 4.078-.092 7.334-3.426 7.331-7.505-.106-125.161-2.4-213.242-2.423-214.117-.104-3.907-3.19-7.08-7.093-7.291-21.792-1.178-45.157-2.025-69.445-2.515-4.121-.122-7.566 3.205-7.65 7.347s3.206 7.567 7.347 7.65c4.329.087 8.618.189 12.884.299.323 23.091 1.284 99.948 1.378 202.093-54.686.616-105.815.398-144.989-.015.095-102.849 1.069-179.589 1.385-201.896 24.841-.638 56.204-1.137 90.525-.964zm100.831 2.62c.521 22.549 2.085 98.21 2.241 199.457-11.736.246-23.425.447-34.993.608-.095-101.179-1.039-177.566-1.371-201.465 11.695.382 23.104.847 34.123 1.4zm-207.741 200.066c-13.742-.174-25.57-.364-34.993-.533.155-101.221 1.719-176.901 2.241-199.5 6.909-.309 18.714-.793 34.13-1.266-.325 23.121-1.282 99.393-1.378 201.299z"/><path d="m160.249 437.638c.228 3.612 3 6.544 6.592 6.975.41.05 7.016.821 16.783.821 4.986 0 10.796-.201 17.025-.803 3.666-.354 6.533-3.318 6.765-6.994.565-8.961.98-18.305 1.239-27.864 16.837-.45 27.4-1.188 27.899-1.223 3.652-.258 6.584-3.116 6.937-6.761 1.779-18.433.056-33.19-.019-33.809-.428-3.57-3.33-6.335-6.917-6.589-.499-.035-11.07-.773-27.918-1.225-.451-16.849-1.189-27.42-1.224-27.92-.258-3.653-3.116-6.584-6.761-6.936-18.431-1.779-33.188-.057-33.808.019-3.57.428-6.334 3.33-6.588 6.917-.035.499-.772 11.064-1.224 27.902-9.575.26-18.917.675-27.862 1.239-3.61.229-6.543 3.001-6.974 6.592-.074.619-1.798 15.378-.019 33.81.354 3.666 3.318 6.534 6.994 6.765 8.955.564 18.292.979 27.842 1.238.259 9.562.674 18.898 1.238 27.846zm-21.639-61.659c8.994-.483 18.347-.818 27.894-.997 4.03-.076 7.28-3.324 7.358-7.355.235-12.184.664-21.936.977-27.885 4.353-.232 10.688-.384 17.99.019.313 5.949.741 15.689.975 27.884.077 4.03 3.325 7.277 7.354 7.355 12.192.234 21.949.663 27.901.977.232 4.354.383 10.688-.019 17.991-5.945.312-15.679.739-27.865.974-4.031.078-7.279 3.328-7.354 7.359-.178 9.525-.513 18.875-.997 27.88-7.281.399-13.622.248-17.983.016-.484-8.997-.819-18.346-.998-27.877-.076-4.032-3.326-7.283-7.358-7.359-9.518-.178-18.86-.513-27.86-.996-.398-7.281-.247-13.623-.015-17.986z"/><path d="m354.242 373.53c12.407 0 22.5-10.094 22.5-22.501s-10.093-22.501-22.5-22.501-22.5 10.094-22.5 22.501 10.094 22.501 22.5 22.501zm0-30.002c4.136 0 7.5 3.364 7.5 7.5s-3.364 7.5-7.5 7.5-7.5-3.364-7.5-7.5 3.365-7.5 7.5-7.5z"/><path d="m231 314.813c0 4.143 3.358 7.502 7.501 7.502s7.501-3.359 7.501-7.502-3.358-7.501-7.501-7.501c-4.142 0-7.501 3.358-7.501 7.501z"/><path d="m273.491 307.312c-4.143 0-7.501 3.359-7.501 7.501 0 4.143 3.358 7.502 7.501 7.502s7.501-3.359 7.501-7.502-3.358-7.501-7.501-7.501z"/><path d="m238.501 458.32c-4.143 0-7.501 3.359-7.501 7.501 0 4.143 3.358 7.502 7.501 7.502s7.501-3.359 7.501-7.502c.001-4.143-3.358-7.501-7.501-7.501z"/><path d="m273.491 458.32c-4.143 0-7.501 3.359-7.501 7.501 0 4.143 3.358 7.502 7.501 7.502s7.501-3.359 7.501-7.502-3.358-7.501-7.501-7.501z"/></g></g></svg>