<svg id="Layer_1" enable-background="new 0 0 512 512" height="512" viewBox="0 0 512 512" width="512" xmlns="http://www.w3.org/2000/svg"><g><g><g><path d="m395.291 82.151h-27.32l-251.28.03c1.13-20.75 2.58-41.899 4.4-63.279 102.31-18.49 197.09-10.38 242.22-4.36 17.61 2.33 27.66 4.36 27.66 4.36s2.24 23.56 4.32 63.249z" fill="#f4f1e1"/><path d="m395.291 82.151h-27.32c-2.04-37.499-4.13-61.699-4.66-67.609 17.61 2.33 27.66 4.36 27.66 4.36s2.24 23.56 4.32 63.249z" fill="#f4e5cb"/><g><path d="m200.021 448.666c-.09 31.5-1.62 53.589-1.62 53.589s-10.68 2.04-26.09 2.21c-8.72.09-18.96-.41-29.64-2.21-1.33-21.38-1.69-41.969-1.61-59.499l32.93 3.3z" fill="#8389aa"/><path d="m173.991 446.057 26.03 2.61c-.09 31.5-1.62 53.589-1.62 53.589s-10.68 2.04-26.09 2.21c.54-10.06 1.51-31.25 1.68-58.409z" fill="#646d91"/><path d="m369.391 502.256s-10.22 1.95-25.1 2.2c-8.93.14-19.55-.33-30.63-2.2-1.19-19.09-1.6-37.55-1.62-53.769l33.95-3.3 25.02-2.43c.1 34.619-1.62 59.499-1.62 59.499z" fill="#8389aa"/><path d="m371.011 442.757c.1 34.619-1.62 59.499-1.62 59.499s-10.22 1.95-25.1 2.2c.52-9.23 1.57-31.04 1.7-59.269z" fill="#646d91"/></g></g><g><path d="m411.956 440.003s-10.71 1.36-28.6 3.03c-28.78 2.69-76.14 6.2-127.33 6.2-83 0-155.92-9.23-155.92-9.23s-20.39-168.238 0-355.625c0 0 72.92-9.23 155.92-9.23 51.77 0 99.62 3.59 128.3 6.29 17.3 1.63 27.63 2.94 27.63 2.94s20.39 168.237 0 355.625z" fill="#ffe36c"/><path d="m411.956 440.003s-10.71 1.36-28.6 3.03c16.29-161.378 5.94-307.906.97-361.595 17.3 1.63 27.63 2.94 27.63 2.94s20.39 168.237 0 355.625z" fill="#ffc46e"/></g><g><path d="m339.646 320.014c0 46.179-37.44 83.619-83.62 83.619-5.12 0-10.13-.46-15-1.35-39.02-7.06-68.61-41.21-68.61-82.269 0-41.049 29.59-75.199 68.61-82.259 4.87-.89 9.88-1.35 15-1.35 46.18.001 83.62 37.44 83.62 83.609z" fill="#8389aa"/><path d="m339.646 320.014c0 46.179-37.44 83.619-83.62 83.619-5.12 0-10.13-.46-15-1.35 39.02-7.06 68.62-41.21 68.62-82.269 0-41.049-29.6-75.199-68.62-82.259 4.87-.89 9.88-1.35 15-1.35 46.18.001 83.62 37.44 83.62 83.609z" fill="#646d91"/></g><g><path d="m279.376 320.014c0 12.9-10.45 23.35-23.35 23.35-3.98 0-7.72-.99-11-2.75-7.34-3.93-12.34-11.68-12.34-20.6 0-8.91 5-16.66 12.34-20.59 3.28-1.76 7.02-2.75 11-2.75 12.9.001 23.35 10.451 23.35 23.34z" fill="#c7cde0"/><path d="m279.376 320.014c0 12.9-10.45 23.35-23.35 23.35-3.98 0-7.72-.99-11-2.75 7.35-3.93 12.35-11.68 12.35-20.6 0-8.91-5-16.66-12.35-20.59 3.28-1.76 7.02-2.75 11-2.75 12.9.001 23.35 10.451 23.35 23.34z" fill="#b1accc"/></g><path d="m293.776 158.507c0 20.85-16.9 37.749-37.75 37.749-4.01 0-7.87-.62-11.5-1.79-15.22-4.86-26.25-19.12-26.25-35.959 0-16.84 11.03-31.1 26.25-35.959 3.63-1.17 7.49-1.79 11.5-1.79 20.85-.001 37.75 16.899 37.75 37.749z" fill="#8389aa"/><path d="m293.776 158.507c0 20.85-16.9 37.749-37.75 37.749-4.01 0-7.87-.62-11.5-1.79 15.22-4.86 26.25-19.12 26.25-35.959 0-16.84-11.03-31.1-26.25-35.959 3.63-1.17 7.49-1.79 11.5-1.79 20.85-.001 37.75 16.899 37.75 37.749z" fill="#646d91"/></g><g><path d="m420.955 281.828c-.035 0-.069 0-.104 0-4.094 0-7.443 3.291-7.499 7.398-.682 49.914-3.446 98.34-8.221 144.042-18.917 2.135-80.911 8.483-149.135 8.483-68.213 0-130.26-6.354-149.159-8.486-2.863-27.2-13.866-145.647-4.859-284.232.269-4.133-2.865-7.702-7-7.971-4.143-.265-7.703 2.864-7.972 6.998-10.323 158.833 5.423 291.538 5.583 292.86.413 3.412 3.094 6.106 6.504 6.538.307.039 13.328 1.666 34.402 3.548.065 18.002.611 35.368 1.628 51.731.216 3.478 2.8 6.349 6.238 6.93 10.349 1.748 20.265 2.332 28.896 2.332 16.821 0 28.76-2.218 29.504-2.359 3.347-.638 5.845-3.451 6.08-6.85.014-.206 1.32-19.38 1.589-47.021 15.467.604 31.834.982 48.566.982 16.728 0 33.09-.378 48.553-.981.137 16.301.674 32.069 1.599 46.968.216 3.479 2.801 6.35 6.238 6.93 10.349 1.749 20.265 2.332 28.896 2.332 16.821 0 28.76-2.218 29.504-2.359 3.347-.638 5.845-3.451 6.081-6.85.016-.231 1.47-21.589 1.625-51.784 21.078-1.882 34.101-3.51 34.408-3.549 3.444-.436 6.139-3.178 6.515-6.629 5.214-47.907 8.222-98.845 8.94-151.399.055-4.142-3.257-7.545-7.4-7.602zm-229.732 213.913c-8.092.986-23.856 2.227-41.479.002-.751-13.875-1.166-28.441-1.24-43.474 12.905 1.021 27.778 2.031 43.928 2.833-.168 18.349-.803 32.932-1.209 40.639zm171.025-.007c-8.111.982-23.913 2.221-41.478.009-.703-12.993-1.112-26.612-1.223-40.639 16.152-.802 31.026-1.812 43.932-2.834-.126 19.681-.804 35.365-1.231 43.464z"/><path d="m96.461 121.588c4.122.359 7.766-2.69 8.129-6.816.695-7.918 1.455-15.845 2.27-23.643 18.917-2.135 80.912-8.483 149.136-8.483 68.218 0 130.268 6.355 149.161 8.487 1.995 18.861 7.927 81.62 8.34 164.224.021 4.13 3.375 7.463 7.501 7.463h.038c4.143-.021 7.485-3.396 7.465-7.538-.498-99.775-9.011-171.097-9.097-171.805-.413-3.412-3.094-6.107-6.504-6.538-.162-.021-3.872-.484-10.441-1.195-1.974-35.8-3.998-57.324-4.02-57.55-.313-3.292-2.745-5.991-5.988-6.644-.556-.112-13.878-2.772-36.746-5.541-4.107-.499-7.851 2.432-8.349 6.544-.498 4.113 2.432 7.85 6.545 8.348 13.861 1.678 24.224 3.336 30.094 4.352.695 8.269 2.022 25.302 3.351 48.955-28.666-2.742-78.159-6.563-131.351-6.563-53.227 0-102.749 3.826-131.407 6.568.964-16.542 2.113-32.943 3.427-48.927 74.674-12.806 144.837-11.365 191.018-7.819 4.131.323 7.736-2.775 8.054-6.904.317-4.13-2.774-7.735-6.905-8.052-48.222-3.703-122.15-5.146-200.495 9.01-3.336.603-5.853 3.367-6.14 6.744-1.593 18.693-2.962 38.002-4.076 57.485-6.53.706-10.217 1.167-10.378 1.188-3.444.436-6.139 3.178-6.515 6.629-1.067 9.796-2.054 19.854-2.935 29.895-.362 4.126 2.691 7.764 6.818 8.126z"/><path d="m301.259 158.512c0-24.953-20.305-45.254-45.263-45.254s-45.263 20.301-45.263 45.254 20.305 45.254 45.263 45.254 45.263-20.301 45.263-45.254zm-75.523 0c0-16.682 13.574-30.253 30.26-30.253s30.26 13.572 30.26 30.253-13.574 30.253-30.26 30.253-30.26-13.571-30.26-30.253z"/><path d="m286.85 320.03c0-17.009-13.841-30.847-30.854-30.847s-30.854 13.838-30.854 30.847 13.841 30.847 30.854 30.847 30.854-13.837 30.854-30.847zm-46.704 0c0-8.738 7.11-15.847 15.85-15.847s15.85 7.109 15.85 15.847-7.11 15.847-15.85 15.847-15.85-7.109-15.85-15.847z"/><path d="m185.345 348.45c-1.547-3.842-5.918-5.702-9.761-4.155-3.844 1.548-5.704 5.917-4.156 9.76 13.973 34.682 47.167 57.093 84.568 57.093 50.253 0 91.136-40.875 91.136-91.118 0-50.242-40.883-91.117-91.136-91.117s-91.136 40.875-91.136 91.117c0 4.142 3.358 7.5 7.502 7.5s7.502-3.358 7.502-7.5c0-41.971 34.153-76.117 76.132-76.117s76.132 34.146 76.132 76.117-34.153 76.117-76.132 76.117c-31.246 0-58.978-18.722-70.651-47.697z"/><path d="m263.498 158.512c0-4.143-3.358-7.501-7.501-7.501s-7.501 3.358-7.501 7.501 3.358 7.501 7.501 7.501 7.501-3.359 7.501-7.501z"/></g></g></svg>