<svg id="Layer_1" enable-background="new 0 0 512.002 512.002" height="512" viewBox="0 0 512.002 512.002" width="512" xmlns="http://www.w3.org/2000/svg"><g><g clip-rule="evenodd" fill-rule="evenodd"><path d="m189.751 101.581c0 36.589 29.661 66.25 66.25 66.25s66.25-29.661 66.25-66.25v-.004c-14.251-6.002-29.881-9.323-46.25-9.323h-40c-16.368 0-31.998 3.321-46.25 9.323z" fill="#ffc144"/><path d="m256.001 167.831c-36.589 0-66.25-29.661-66.25-66.25v-.004c-23.515 9.903-43.276 27.104-56.406 48.725-1.909 3.142-3.677 6.378-5.296 9.699-6.008 12.32-9.967 25.805-11.423 40.001-.414 4.03-.625 8.117-.625 12.251 0 15.917 5.917 31.834 14.428 47.751 7.129 13.334 16.078 26.668 24.893 40.001 7.184 10.867 14.279 21.734 20.226 32.601 9.057 16.549 15.454 33.098 15.454 49.647 0 22 18 40 40 40h49.998c22 0 40-18 40-40 0-16.549 6.397-33.098 15.454-49.647 5.947-10.867 13.042-21.734 20.226-32.601 8.815-13.334 17.764-26.667 24.893-40.001 8.511-15.917 14.428-31.834 14.428-47.751 0-4.134-.212-8.221-.625-12.251-1.456-14.197-5.415-27.681-11.423-40.001-1.619-3.32-3.388-6.557-5.296-9.699-13.13-21.621-32.891-38.822-56.405-48.725v.004c-.001 36.589-29.662 66.25-66.251 66.25zm-31.184 154.67c2.535-10.017 17.181-10.585 31.184-10.585s28.65.568 31.185 10.585c4.069 16.077-15.188 29.915-31.185 29.915s-35.253-13.838-31.184-29.915z" fill="#6d91ac"/><g fill="#8aa7bd"><path d="m287.186 322.501c-2.535-10.017-17.181-10.585-31.185-10.585s-28.65.568-31.184 10.585c-4.069 16.077 15.188 29.915 31.184 29.915s35.253-13.838 31.185-29.915z"/><path d="m133.346 150.302c13.13-21.621 32.891-38.822 56.406-48.725v-51.576-28.14c0-6.551-4.477-11.861-10-11.861-27.104 0-50.519 18.742-61.535 45.895-4.303 10.607-6.715 22.498-6.715 35.056-.001 23.45 8.41 44.567 21.844 59.351z"/><path d="m322.251 50.001v51.575c23.515 9.903 43.276 27.104 56.404 48.726 13.435-14.784 21.846-35.902 21.846-59.352 0-12.558-2.411-24.449-6.715-35.056-11.016-27.152-34.431-45.894-61.535-45.894-5.523 0-10 5.31-10 11.861z"/></g><path d="m236.001 92.253h40c16.368 0 31.998 3.321 46.25 9.323v-51.575h-132.5v51.575c14.252-6.001 29.882-9.323 46.25-9.323z" fill="#60a4ff"/><path d="m133.346 150.302c-13.433-14.783-21.845-35.901-21.845-59.351 0-12.558 2.411-24.449 6.715-35.056-10.41 7.174-17.07 20.08-20.712 34.107l-18.175 69.999h48.72c1.62-3.321 3.388-6.557 5.297-9.699z" fill="#ffc144"/><path d="m128.05 160.001h-48.72l-10.386 40.001h47.683c1.456-14.197 5.414-27.681 11.423-40.001z" fill="#60a4ff"/><path d="m116.627 200.002h-47.684l-15.579 60.002h77.066c-8.511-15.917-14.428-31.834-14.428-47.751-.001-4.134.211-8.221.625-12.251z" fill="#ffc144"/><path d="m130.429 260.004h-77.065l-.107.414c-4.41 16.984-1.554 28.786 5.798 39.587h96.268c-8.815-13.333-17.764-26.667-24.894-40.001z" fill="#60a4ff"/><path d="m400.501 90.95c0 23.45-8.411 44.568-21.845 59.351 1.909 3.142 3.677 6.378 5.296 9.699h48.721l-18.175-69.999c-3.642-14.025-10.302-26.932-20.712-34.107 4.304 10.608 6.715 22.498 6.715 35.056z" fill="#ffc144"/><path d="m432.673 160.001h-48.721c6.008 12.32 9.967 25.805 11.423 40.001h47.684z" fill="#60a4ff"/><path d="m443.06 200.002h-47.684c.414 4.03.625 8.117.625 12.251 0 15.917-5.917 31.834-14.428 47.751h77.066z" fill="#ffc144"/><path d="m458.639 260.004h-77.066c-7.129 13.334-16.078 26.668-24.893 40.001h96.267c7.353-10.802 10.209-22.603 5.799-39.587z" fill="#60a4ff"/><path d="m452.947 300.006h-96.267c-7.184 10.867-14.279 21.734-20.226 32.601v27.401h55.186l.124-1.138 32.736-29.371c11.751-11.016 21.888-19.857 28.447-29.493z" fill="#ffc144"/><path d="m391.64 360.008h-55.186v63.244h14.788 15.685c11 0 18.808-9.064 20-20l4.519-41.465z" fill="#60a4ff"/><path d="m175.549 423.252v-63.244h-55.186l.194 1.778 4.52 41.466c1.192 10.935 9 20 20 20h15.689z" fill="#60a4ff"/><path d="m120.362 360.008h55.186v-27.401c-5.947-10.867-13.042-21.734-20.226-32.601h-96.267c6.559 9.636 16.697 18.477 28.448 29.494l32.736 29.371z" fill="#ffc144"/><path d="m175.549 360.008v63.244h-14.784c23.355 26.692 57.615 43.242 95.237 43.242 37.623 0 71.885-16.549 95.24-43.242h-14.788v-63.244-27.401c-9.057 16.548-15.454 33.097-15.454 49.646 0 22-18 40-40 40h-49.998c-22 0-40-18-40-40 0-16.549-6.397-33.098-15.454-49.647v27.402z" fill="#ffc144"/><path d="m145.076 423.252c-11 0-18.808-9.064-20-20l-4.52-41.466c-27.71 31.681-44.555 73.074-44.555 118.213v22.003h360v-22.003c0-45.14-16.846-86.531-44.555-118.211l-4.519 41.465c-1.192 10.935-9 20-20 20h-15.685c-23.355 26.693-57.618 43.242-95.24 43.242-37.621 0-71.882-16.55-95.237-43.242h-15.689z" fill="#6d91ac"/></g><g><path d="m226.004 270.004c0-5.522-4.478-10-10-10h-.008c-5.522 0-9.996 4.478-9.996 10s4.481 10 10.004 10 10-4.478 10-10z"/><path d="m296.007 260.004h-.008c-5.522 0-9.996 4.478-9.996 10s4.481 10 10.004 10 10-4.478 10-10-4.478-10-10-10z"/><path d="m431.34 336.795c1.645-1.543 3.259-3.043 4.835-4.508 22.289-20.716 41.539-38.606 32.25-74.382l-44.248-170.417c-4.378-16.863-12.063-29.933-22.307-38.035-12.997-29.34-39.325-49.453-69.619-49.453-11.028 0-20 9.807-20 21.861v18.14h-112.499v-18.14c0-12.054-8.973-21.861-20.001-21.861-30.294 0-56.62 20.113-69.618 49.452-10.243 8.102-17.929 21.173-22.308 38.036l-44.247 170.416c-9.29 35.776 9.959 53.666 32.248 74.381 1.577 1.466 3.191 2.966 4.837 4.51.054.05.107.099.161.147l27.123 24.335c-27.094 33.698-41.945 75.57-41.945 118.722v22.003c0 5.522 4.478 10 10 10h359.999c5.522 0 10-4.478 10-10v-22.003c0-43.172-14.843-85.023-41.943-118.724l27.121-24.333c.053-.048.107-.097.161-.147zm-84.886 76.457v-43.244h34.037l-3.506 32.161c-.581 5.338-3.978 11.083-10.059 11.083zm-35.454-30.999c0 16.542-13.458 30-29.999 30h-49.998c-16.542 0-30-13.458-30-30 0-31.342-19.908-61.426-39.161-90.518-17.62-26.626-35.841-54.158-35.841-79.482 0-40.751 22.275-76.398 55.289-95.404 7.091 34.753 37.895 60.981 74.711 60.981s67.621-26.229 74.712-60.981c33.014 19.006 55.289 54.653 55.289 95.404 0 25.324-18.221 52.856-35.841 79.482-19.253 29.092-39.161 59.176-39.161 90.518zm-145.451 30.999h-20.473c-6.081 0-9.478-5.745-10.059-11.084l-3.506-32.16h34.037v43.244zm-100.841-123.246c-3.142-6.041-4.224-12.268-3.186-20.002h63.013c3.807 6.722 7.966 13.388 12.244 20.002zm55.514-140.005h-27.965l10.724-41.304c2.571 15.242 8.461 29.386 17.241 41.304zm-7.167 20c-2.224 6.454-3.952 13.136-5.141 20.001h-26.043l5.193-20.001zm-36.377 40.001h29.352c-.013.75-.029 1.499-.029 2.251 0 12.787 3.315 25.365 8.546 37.751h-48.255zm123.483-101.749c11.24-3.884 23.297-6 35.84-6h40.001c12.543 0 24.6 2.116 35.84 6-3.312 27.88-27.083 49.577-55.841 49.577-28.757 0-52.528-21.697-55.84-49.577zm208.86.442 10.725 41.306h-27.958c8.78-11.918 14.664-26.059 17.233-41.306zm-3.048 101.307h29.352l10.386 40.002h-48.256c5.231-12.386 8.547-24.964 8.547-37.751 0-.753-.016-1.502-.029-2.251zm-1.884-20c-1.189-6.865-2.917-13.547-5.141-20.001h25.991l5.193 20.001zm-16.622 80.002h63.013c1.038 7.734-.044 13.961-3.186 20.002h-72.071c4.278-6.614 8.437-13.28 12.244-20.002zm-54.706-250.001c31.886.335 57.74 32.033 57.74 70.947 0 15.463-4.015 30.041-11.441 42.162-3.631-4.718-7.577-9.18-11.808-13.355v-40.007c0-5.522-4.478-10-10-10s-10 4.478-10 10v23.824c-4.792-3.152-9.799-6.003-15.002-8.511v-73.202c.001-.951.306-1.57.511-1.858zm-20.51 39.998v27.401c-11.511-3.347-23.673-5.149-36.249-5.149h-40.001c-12.576 0-24.738 1.802-36.249 5.149v-27.401zm-133.01-39.998c.205.288.511.907.511 1.858v73.202c-5.203 2.508-10.21 5.359-15.002 8.511v-23.824c0-5.522-4.478-10-10-10s-10 4.478-10 10v40.007c-4.231 4.175-8.176 8.637-11.807 13.354-7.425-12.125-11.442-26.71-11.442-42.16 0-38.915 25.855-70.613 57.74-70.948zm-89.8 297.632c-2.92-2.714-5.619-5.24-8.094-7.629h68.59c5.505 8.383 10.901 16.827 15.612 25.237v14.765h-40.213l-31.073-27.879c-1.641-1.537-3.25-3.033-4.822-4.494zm336.56 174.367h-60.002v-22.004c0-5.522-4.478-10-10-10s-10 4.478-10 10v22.004h-179.994v-22.004c0-5.522-4.478-10-10-10s-10 4.478-10 10v22.004h-60.003v-12.003c0-32.781 9.592-64.744 27.341-92.107l1.792 16.443c1.825 16.756 14.418 28.917 29.941 28.917h11.264c14.175 15.128 31.75 26.952 51.098 34.325 1.172.446 2.375.658 3.559.658 4.029 0 7.826-2.453 9.347-6.442 1.967-5.16-.623-10.938-5.784-12.905-11.573-4.41-22.397-10.696-32.009-18.501 1.849-1.815 2.999-4.339 2.999-7.135v-20.207c7.907 17.217 25.301 29.208 45.454 29.208h49.998c20.152 0 37.546-11.991 45.453-29.208v20.207c0 2.796 1.151 5.322 3.001 7.136-9.614 7.808-20.441 14.094-32.017 18.502-5.161 1.965-7.751 7.743-5.785 12.904 1.52 3.989 5.316 6.443 9.347 6.443 1.183 0 2.386-.212 3.558-.658 19.352-7.371 36.931-19.195 51.11-34.328h11.26c15.523 0 28.116-12.161 29.941-28.916l1.792-16.441c17.75 27.361 27.341 59.309 27.341 92.104v12.004zm-8.261-169.873-31.073 27.879h-40.213v-14.765c4.711-8.41 10.107-16.854 15.612-25.237h68.591c-2.476 2.39-5.176 4.917-8.097 7.632-1.573 1.46-3.18 2.954-4.82 4.491z"/><path d="m256.001 301.916c-13.573 0-36.291 0-40.878 18.131-2.199 8.688-.116 17.704 5.864 25.388 5.901 7.581 15.237 13.302 25.014 15.718v9.353c-7.204.969-13.887 2.982-19.418 5.899-4.886 2.576-6.758 8.625-4.182 13.51 2.576 4.884 8.623 6.756 13.51 4.182 5.126-2.703 12.448-4.253 20.09-4.253 7.643 0 14.965 1.55 20.091 4.253 1.487.784 3.083 1.156 4.655 1.156 3.592 0 7.063-1.94 8.854-5.338 2.576-4.885.704-10.934-4.182-13.51-5.531-2.917-12.215-4.929-19.419-5.899v-9.353c9.777-2.416 19.113-8.136 25.015-15.718 5.98-7.684 8.063-16.699 5.864-25.387-4.586-18.132-27.305-18.132-40.878-18.132zm19.232 31.233c-4.112 5.282-12.38 9.267-19.232 9.267s-15.119-3.984-19.231-9.267c-3.27-4.199-2.508-7.206-2.258-8.195.021-.082.037-.114.037-.115.012-.017.973-1.174 5.489-2.001 4.641-.851 10.673-.922 15.963-.922s11.323.071 15.963.922c4.528.83 5.483 1.99 5.489 1.999 0 0 .017.033.038.118.25.988 1.012 3.995-2.258 8.194z"/><path d="m256.002 456.493h-.008c-5.522 0-9.996 4.478-9.996 10s4.481 10 10.004 10c5.522 0 10-4.478 10-10s-4.478-10-10-10z"/></g></g></svg>