<svg id="Layer_1" enable-background="new 0 0 512 512" height="512" viewBox="0 0 512 512" width="512" xmlns="http://www.w3.org/2000/svg"><g><g><path d="m405.269 405.245c-48.111 47.97-104.452 74.02-158.927 87.229-31.013 7.524-61.418 10.889-89.349 11.78-77.059 2.447-135.225-13.987-135.225-13.987s-.658-2.326-1.69-6.668c-4.137-17.402-14.312-67.175-12.282-129.054.905-27.704 4.257-57.827 11.688-88.565 13.202-54.553 39.251-111.023 87.312-159.212 48.373-48.246 105.089-74.317 159.832-87.469 30.808-7.389 60.994-10.691 88.72-11.561 0 0 0 0 .007.007 61.51-1.916 110.937 8.181 128.267 12.304 4.342 1.032 6.668 1.69 6.668 1.69s16.334 57.827 14.015 134.548c-.841 27.782-4.137 58.046-11.54 88.94-13.131 54.808-39.208 111.589-87.496 160.018z" fill="#fab684"/><path d="m405.269 405.245c-48.111 47.97-104.452 74.02-158.927 87.229-31.013 7.524-61.418 10.889-89.349 11.78-77.059 2.447-135.225-13.987-135.225-13.987s-.658-2.326-1.69-6.668c35.687 5.961 220.933 28.97 356.907-106.639 135.614-135.983 112.598-321.223 106.637-356.911 4.342 1.032 6.668 1.69 6.668 1.69s16.334 57.827 14.015 134.548c-.841 27.782-4.137 58.046-11.54 88.94-13.131 54.808-39.208 111.589-87.496 160.018z" fill="#f79e60"/><g fill="#f4f1e1"><path d="m492.765 245.227-.205-.304c-7.135-9.256-14.425-18.356-21.814-27.287-94.192-113.738-204.104-198.026-204.104-198.026l-.014-.311c30.808-7.389 60.994-10.691 88.72-11.561 0 0 0 0 .007.007.948.735 70.384 54.164 131.336 126.685 5.982 7.113 11.872 14.404 17.614 21.857-.841 27.782-4.137 58.047-11.54 88.94z"/><path d="m246.342 492.474c-31.013 7.524-61.418 10.889-89.349 11.78l-.042-.552c-7.255-5.586-14.368-11.328-21.305-17.147-73.319-61.482-127.278-131.832-127.278-131.832l-.573-.177c.905-27.704 4.257-57.827 11.688-88.565l.757.035s84.47 110.153 198.397 204.41c8.803 7.29 17.784 14.474 26.912 21.51z"/></g><g fill="#f4e5cb"><path d="m470.746 217.636c8.648-29.225 13.491-57.502 15.945-83.205 5.982 7.113 11.872 14.404 17.614 21.857-.841 27.782-4.137 58.046-11.54 88.94l-.205-.304c-7.134-9.257-14.425-18.358-21.814-27.288z"/><path d="m246.342 492.474c-31.013 7.524-61.418 10.889-89.349 11.78l-.042-.552c-7.255-5.586-14.368-11.328-21.305-17.147 25.675-2.524 53.874-7.432 82.992-16.129 8.803 7.29 17.784 14.474 26.912 21.51z"/></g></g><g><path d="m510.728 104.473c-3.514-49.986-12.826-83.374-13.221-84.771-.709-2.509-2.67-4.469-5.179-5.178-2.418-.683-60.117-16.704-137.381-14.273-45.468 1.429-88.197 9.026-126.997 22.579-48.67 17-91.23 43.453-126.514 78.637-22.956 23.015-42.34 49.316-57.615 78.174-1.938 3.661-.541 8.2 3.121 10.137 3.662 1.936 8.2.54 10.138-3.121 14.577-27.541 33.074-52.639 54.963-74.584 33.602-33.508 74.178-58.74 120.6-74.995 10.352-3.625 21.002-6.809 31.925-9.549 9.287 7.296 43.233 34.444 85.639 74.067 1.446 1.351 3.285 2.02 5.12 2.02 2.005 0 4.005-.799 5.482-2.379 2.828-3.026 2.667-7.772-.359-10.6-33.511-31.312-61.842-54.951-77.123-67.321 22.224-4.427 45.463-7.101 69.529-7.986 13.223 10.437 86.322 69.482 143.775 143.303-.771 21.941-3.098 45.377-7.812 69.361-29.599-37.147-64.235-75.178-103.14-113.239-2.96-2.897-7.709-2.845-10.607.116-2.897 2.96-2.846 7.709.116 10.606 41.821 40.914 78.622 81.755 109.427 121.437-3.034 12.202-6.73 24.48-11.193 36.713-1.42 3.891.585 8.197 4.476 9.616.848.31 1.716.456 2.57.456 3.062 0 5.937-1.889 7.047-4.932 25.065-68.698 26.458-138.139 23.213-184.294zm-134.473-89.436c53.494.609 95.045 9.714 107.872 12.861 3.117 12.741 12.077 53.806 12.762 107.076-44.645-54.149-95.246-98.77-120.634-119.937z"/><path d="m469.461 313.085c-3.719-1.825-8.213-.289-10.038 3.43-15.25 31.078-35.261 59.147-59.463 83.411-33.603 33.508-74.178 58.74-120.6 74.995-10.185 3.566-20.658 6.706-31.395 9.416-16.314-12.647-33.012-26.465-49.67-41.103-3.112-2.733-7.851-2.428-10.586.683s-2.429 7.851.683 10.585c13.615 11.964 27.262 23.391 40.716 34.097-22.079 4.424-45.163 7.114-69.066 8.038-75.595-58.613-135.872-133.869-144.674-145.071 1.043-25.834 4.103-48.955 8.201-69.249 20.295 25.066 72.046 86.613 139.222 149.039 1.445 1.342 3.277 2.006 5.105 2.006 2.012 0 4.018-.805 5.496-2.394 2.82-3.034 2.647-7.78-.388-10.599-77.947-72.435-134.864-143.619-145.187-156.77 4.425-17.517 9.499-32.453 14.384-44.709 1.533-3.848-.343-8.21-4.191-9.744s-8.211.343-9.745 4.19c-28.017 70.292-30.278 142.345-27.242 190.411 3.288 52.039 13.059 87.085 13.473 88.551.709 2.509 2.67 4.47 5.179 5.178 2.248.635 52.26 14.525 121.371 14.523 5.227 0 10.576-.08 16.01-.25 45.469-1.429 88.197-9.026 126.997-22.579 48.669-17 91.229-43.453 126.513-78.638 25.379-25.445 46.348-54.854 62.324-87.41 1.825-3.718.29-8.212-3.429-10.037zm-441.59 171.016c-2.622-10.662-9.371-41.155-11.901-81.694-.59-9.446-.903-18.615-.975-27.502 21.021 25.264 66.353 76.818 121.426 122.065-53.826-.544-95.673-9.71-108.55-12.869z"/><path d="m202.157 233.334c-3.231-2.592-7.95-2.075-10.544 1.154s-2.077 7.95 1.152 10.543c.241.194 14.658 11.83 33.138 29.759l-28.021 27.942c-18.721-18.184-33.334-29.972-34.345-30.784-3.231-2.594-7.953-2.077-10.545 1.154-2.594 3.23-2.076 7.951 1.154 10.543.241.193 14.625 11.798 33.087 29.705l-19.788 19.732c-2.933 2.925-2.939 7.674-.014 10.606 1.466 1.469 3.388 2.204 5.311 2.204 1.916 0 3.833-.73 5.296-2.189l19.825-19.769c9.783 10.004 20.115 21.338 29.749 33.37 1.482 1.85 3.661 2.813 5.86 2.813 1.644 0 3.3-.539 4.683-1.646 3.234-2.589 3.756-7.308 1.168-10.542-10.06-12.564-20.743-24.298-30.818-34.608l28.026-27.947c9.773 9.995 20.088 21.311 29.7 33.315 1.482 1.85 3.661 2.813 5.861 2.813 1.644 0 3.3-.539 4.683-1.646 3.234-2.589 3.756-7.309 1.168-10.542-10.043-12.543-20.706-24.258-30.767-34.555l28.149-28.069c10.289 10.048 21.992 20.696 34.521 30.725 1.383 1.107 3.039 1.646 4.683 1.646 2.199 0 4.379-.963 5.86-2.813 2.589-3.234 2.066-7.954-1.168-10.542-11.978-9.589-23.272-19.878-33.252-29.63l28.027-27.948c10.276 10.033 21.961 20.662 34.468 30.674 1.383 1.107 3.039 1.646 4.683 1.646 2.199 0 4.379-.963 5.86-2.813 2.589-3.234 2.066-7.953-1.168-10.542-11.957-9.572-23.233-19.842-33.199-29.579l19.684-19.629c2.933-2.925 2.94-7.674.015-10.606-2.926-2.934-7.675-2.938-10.608-.015l-19.68 19.625c-17.998-18.536-29.686-33.013-29.88-33.255-2.593-3.229-7.313-3.746-10.545-1.152-3.23 2.593-3.746 7.312-1.153 10.542.814 1.014 12.662 15.697 30.928 34.485l-28.02 27.941c-17.968-18.511-29.635-32.961-29.829-33.202-2.593-3.229-7.315-3.746-10.545-1.152-3.23 2.593-3.747 7.312-1.154 10.542.813 1.013 12.64 15.67 30.877 34.432l-28.179 28.099c-18.743-18.213-33.382-30.023-34.394-30.835z"/><path d="m207.775 101.14c-63.492 33.246-104.58 103.197-106.298 106.158-2.078 3.582-.859 8.169 2.723 10.248 1.185.688 2.48 1.015 3.758 1.015 2.585 0 5.102-1.338 6.494-3.734.4-.688 40.699-69.199 100.283-100.399 3.67-1.921 5.087-6.454 3.165-10.123s-6.454-5.086-10.125-3.165z"/><path d="m296.322 396.676c-3.581 2.079-4.8 6.667-2.722 10.249 1.392 2.399 3.908 3.738 6.495 3.738 1.277 0 2.573-.327 3.757-1.014 2.962-1.718 72.921-42.801 106.171-106.285 1.922-3.669.505-8.202-3.165-10.123s-8.203-.505-10.125 3.165c-31.203 59.577-99.722 99.87-100.411 100.27z"/></g></g></svg>