<svg id="Layer_1" enable-background="new 0 0 512 512" height="512" viewBox="0 0 512 512" width="512" xmlns="http://www.w3.org/2000/svg"><g><g><path d="m10.081 248.421s-5.796 57.27 0 129.153c0 0 20.746 2.437 37.252 0v-129.153c-16.506-2.437-37.252 0-37.252 0z" fill="#8389aa"/><path d="m503.034 463.906c-10.11.44-20.14.84-30.09 1.22-11.31.44-22.52.84-33.6 1.2l-76.08 2.05c-105.54 3.92-169.93 1.48-169.93 1.48l-76.09-1.57c-40.31-.93-63.26-1.91-63.26-1.91-14.09-143.788-2.59-295.806-2.59-295.806s188.75-5.01 299.779-1.59c13.15.4 25.21.93 35.73 1.59 0 0 5.96 15.78 14.87 38.099 12.53 31.37 30.91 75.659 46.83 107.139.68 1.35 1.36 2.68 2.03 3.98 0 0 9.24 3.4 22.25 11.98 8.87 5.85 19.5 14.11 30.15 25.33.001-.001 3.311 53.148.001 106.808z" fill="#ff7878"/><path d="m503.034 463.906c-10.11.44-20.14.84-30.09 1.22 1.31-54.109.41-110.819-.06-133.358 8.87 5.85 19.5 14.11 30.15 25.33 0-.001 3.31 53.148 0 106.808z" fill="#e84680"/><g fill="#99f8ff"><path d="m450.634 319.788c-10.16.74-21.87 1.21-34.02 1.5-44.91 1.06-95.73-.45-95.73-.45-3.98-57.879-2.26-113.258-2.26-113.258s20.04-.55 47.2-.12c11.05.18 23.29.52 35.83 1.12l.12.09c13.07 32.719 32.5 79.478 48.86 111.118z"/><path d="m281.594 319.427c-8.85.21-18.23.37-27.89.49-74.56.92-166.15-.49-166.15-.49-2.56-57.529-.66-112.929-.66-112.929s91.59-2.19 166.15-1.45c9.66.1 19.03.24 27.88.45 0 .001 3.23 56.4.67 113.929z"/></g><path d="m281.594 319.427c-8.85.21-18.23.37-27.89.49 2.07-49.939-.1-102.809-.66-114.868 9.66.1 19.03.24 27.88.45 0 0 3.23 56.399.67 113.928z" fill="#92d3f7"/><path d="m448.604 315.808-31.79 5.86c-31.99-61.859-58.96-134.318-65.64-152.688 13.15.4 25.21.93 35.73 1.59 0 0 5.96 15.78 14.87 38.099 12.53 31.37 30.91 75.659 46.83 107.139z" fill="#e84680"/><path d="m450.634 319.788c-10.16.74-21.87 1.21-34.02 1.5-20.25-39.229-38.48-82.649-50.79-113.829 11.05.18 23.29.52 35.83 1.12l.12.09c13.07 32.72 32.5 79.479 48.86 111.119z" fill="#92d3f7"/><g><path d="m393.694 124.08c-18.53.69-36.69 1.25-54.39 1.69-165.98 4.16-291.049-1.69-291.049-1.69s-19.06-108.449 116.53-115.998c0 0 .38-.03 1.11-.07 17.16-.96 227.799-10.16 227.799 116.068z" fill="#8389aa"/><path d="m393.694 124.08c-18.53.69-36.69 1.25-54.39 1.69-11.35-70.269-114.01-103.999-173.41-117.759 17.161-.959 227.8-10.159 227.8 116.069z" fill="#646d91"/></g><g><path d="m439.344 466.376c0 21.06-17.05 38.129-38.07 38.129-5.32 0-10.4-1.1-15-3.08-13.56-5.82-23.07-19.32-23.07-35.049 0-15.73 9.51-29.23 23.07-35.05 4.6-1.98 9.68-3.08 15-3.08 21.02 0 38.07 17.07 38.07 38.13z" fill="#8389aa"/><path d="m439.344 466.376c0 21.06-17.05 38.129-38.07 38.129-5.32 0-10.4-1.1-15-3.08 13.56-5.82 23.07-19.32 23.07-35.049 0-15.73-9.51-29.23-23.07-35.05 4.6-1.98 9.68-3.08 15-3.08 21.02 0 38.07 17.07 38.07 38.13z" fill="#646d91"/></g><g><path d="m193.331 466.377c0 21.06-17.05 38.129-38.07 38.129-5.32 0-10.4-1.1-15-3.08-13.56-5.82-23.07-19.32-23.07-35.049 0-15.73 9.51-29.23 23.07-35.05 4.6-1.98 9.68-3.08 15-3.08 21.02 0 38.07 17.07 38.07 38.13z" fill="#8389aa"/><path d="m193.331 466.377c0 21.06-17.05 38.129-38.07 38.129-5.32 0-10.4-1.1-15-3.08 13.56-5.82 23.07-19.32 23.07-35.049 0-15.73-9.51-29.23-23.07-35.05 4.6-1.98 9.68-3.08 15-3.08 21.02 0 38.07 17.07 38.07 38.13z" fill="#646d91"/></g></g><g><path d="m510.526 356.625c-.109-1.757-.833-3.419-2.044-4.696-22.41-23.619-44.697-34.659-52.431-38.028-6.429-12.619-13.843-28.527-22.06-47.34-1.657-3.795-6.076-5.528-9.876-3.871-3.796 1.658-5.53 6.079-3.871 9.875 6.746 15.446 12.972 28.986 18.583 40.422-38.753 1.945-92.174.962-110.91.523-2.603-42.402-2.252-82.687-1.965-98.578 12.645-.193 40.509-.382 70.619.918 2.933 7.304 6.134 15.18 9.509 23.339 1.582 3.826 5.97 5.645 9.798 4.063 3.827-1.583 5.647-5.97 4.064-9.798-14.572-35.224-25.911-65.234-26.023-65.533-1.041-2.759-3.603-4.652-6.545-4.838-7.743-.488-16.33-.9-25.578-1.245.502-13.123.336-22.98.086-29.192 10.57-.316 21.266-.67 32.091-1.073 4.031-.15 7.221-3.462 7.221-7.495 0-29.179-10.571-53.848-31.419-73.323-26.757-24.994-69.592-41.02-127.318-47.633-42.46-4.863-76.758-2.618-78.105-2.525-39.528 2.2-70.382 13.018-91.706 32.153-3.082 2.767-3.339 7.509-.572 10.592 2.766 3.081 7.507 3.339 10.592.572 18.72-16.8 46.484-26.335 82.613-28.347.338-.022 34.357-2.253 75.47 2.458 37.445 4.289 88.448 15.351 118.786 43.691 15.949 14.899 24.809 33.422 26.399 55.14-164.491 5.842-300.373 1.212-330.933 0-.572-8.936-.374-26.759 7.53-44.956 1.65-3.8-.092-8.217-3.891-9.867-3.803-1.652-8.217.093-9.868 3.891-12.935 29.779-8.142 58.254-7.931 59.452.607 3.457 3.53 6.03 7.037 6.194.463.022 14.766.674 39.731 1.381-.247 6.319-.407 16.247.088 29.285-22.1.458-35.956.82-36.521.835-3.845.102-6.99 3.096-7.28 6.931-.027.356-2.087 27.955-3.392 70.164-15.217-1.049-30.568.714-31.323.803-3.494.411-6.233 3.194-6.587 6.694-.059.579-5.797 58.777-.014 130.508.287 3.563 3.05 6.429 6.601 6.846.583.068 9.872 1.137 21.079 1.137 3.462 0 7.103-.123 10.731-.387 1.173 28.663 3.011 55.866 5.506 81.334.364 3.719 3.41 6.601 7.143 6.762.218.009 21.008.891 56.98 1.76 4.283 20.74 22.665 36.377 44.628 36.377 21.282 0 39.198-14.683 44.186-34.462 8.581.224 25.565.563 49.602.563 12.497 0 26.902-.092 43.01-.34 4.142-.063 7.448-3.473 7.384-7.614-.063-4.102-3.408-7.385-7.498-7.385-.039 0-.078 0-.117.001-45.923.707-77.8.14-91.168-.198-1.94-23.383-21.553-41.822-45.4-41.822-23.176 0-42.352 17.417-45.193 39.863-23.676-.575-40.614-1.154-49.247-1.474-3.912-42.291-6.039-89.268-6.324-139.751-.023-4.128-3.376-7.458-7.499-7.458-.015 0-.029 0-.043 0-4.143.023-7.482 3.4-7.458 7.542.099 17.543.423 34.66.961 51.323-8.588.672-17.618.284-23.394-.127-3.901-54.14-1.266-99.371-.052-115.33 5.695-.405 14.585-.792 23.092-.156-.208 8.616-.378 17.704-.49 27.184-.05 4.142 3.269 7.539 7.411 7.588.03.001.061.001.091.001 4.101 0 7.45-3.3 7.498-7.411.594-50.286 2.82-89.513 3.794-104.641 38.777-.942 232.481-5.269 323.224-.13 1.793 4.683 4.893 12.717 8.882 22.83-38.504-1.411-71.728-.53-72.09-.519-3.971.109-7.167 3.295-7.29 7.264-.018.558-1.685 56.425 2.276 114.006.265 3.848 3.405 6.868 7.261 6.982.477.014 28.236.817 60.756.817 22.94 0 48.234-.403 68.005-1.762 5.368 2.297 25.648 11.846 46.29 32.906.575 10.932 2.469 52.965.229 96.403-16.354.691-33.04 1.323-49.767 1.893-3.702-21.462-22.417-37.843-44.893-37.843-23.356 0-42.653 17.687-45.261 40.384-9.327.328-18.643.619-27.784.865-4.141.111-7.407 3.558-7.295 7.698.109 4.072 3.445 7.299 7.494 7.299.068 0 .137-.001.205-.003 9.253-.249 18.685-.544 28.126-.876 4.469 20.495 22.726 35.89 44.516 35.89 22.674 0 41.528-16.668 44.994-38.409 19.228-.654 38.406-1.39 57.096-2.201 3.834-.167 6.925-3.201 7.161-7.031 3.296-53.497.031-107.197-.003-107.734zm-355.278 79.118c16.857 0 30.57 13.74 30.57 30.629 0 16.888-13.714 30.628-30.57 30.628s-30.569-13.74-30.569-30.628c-.001-16.889 13.713-30.629 30.569-30.629zm-52.551-273.805c-.491-12.823-.321-22.568-.084-28.59 13.546.333 29.311.654 46.979.904-.224 5.831-.344 14.782.119 26.893-17.26.25-33.205.528-47.014.793zm113.809-1.503c-17.764.114-35.239.293-51.789.505-.472-12.144-.333-20.993-.113-26.499 16.04.177 33.411.289 51.902.3zm68.273-.048c-17.442-.106-35.411-.106-53.272-.032v-25.63c17.001-.042 34.852-.175 53.399-.422.216 5.393.345 14.045-.127 26.084zm62.023.966c-14.62-.409-30.483-.682-47.015-.847.456-11.923.343-20.693.123-26.426 15.257-.251 30.932-.581 46.969-1.007.237 5.871.411 15.471-.077 28.28zm54.473 335.647c-16.857 0-30.57-13.74-30.57-30.628 0-16.889 13.714-30.629 30.57-30.629s30.569 13.74 30.569 30.629c.001 16.889-13.713 30.628-30.569 30.628z"/><path d="m281.757 326.921c3.944-.092 7.142-3.223 7.318-7.164 2.554-57.248-.635-114.123-.668-114.691-.223-3.901-3.405-6.978-7.313-7.069-76.471-1.785-193.229.972-194.399.999-3.972.096-7.18 3.27-7.316 7.241-.02.557-1.883 56.356.666 113.52.177 3.964 3.409 7.104 7.377 7.165.777.012 52.628.795 109.765.795 28.802 0 58.952-.199 84.57-.796zm-53.86-114.517c15.85.031 31.463.163 45.873.44.709 15.877 2.158 56.816.605 99.234-14.595.291-30.422.464-46.477.556v-100.23zm-86.023 100.097c-21.082-.156-38.097-.359-47.136-.478-1.622-42.174-.945-82.356-.563-98.19 9.134-.194 26.368-.534 47.698-.834v99.502zm15.001-99.697c17.415-.207 36.669-.368 56.021-.401v100.293c-19.375.052-38.628 0-56.021-.097z"/><path d="m87.213 353.888c-4.062-.769-7.995 1.902-8.766 5.972-.163.859-3.948 21.29-.001 42.103.683 3.598 3.828 6.104 7.361 6.103.464 0 .935-.043 1.406-.132 4.07-.772 6.744-4.697 5.972-8.766-3.391-17.875-.059-36.201 0-36.518.769-4.068-1.903-7.989-5.972-8.762z"/><path d="m470.98 408.007c.318.04.634.06.947.06 3.724 0 6.955-2.772 7.432-6.563 1.755-13.934.072-27.612 0-28.188-.518-4.109-4.265-7.021-8.379-6.504-4.11.518-7.022 4.269-6.504 8.379.016.122 1.522 12.358 0 24.438-.518 4.109 2.394 7.86 6.504 8.378z"/><path d="m344.647 363.196c4.113.505 7.857-2.398 8.373-6.507.517-4.109-2.396-7.86-6.506-8.377-.575-.072-14.261-1.753-28.202 0-4.111.517-7.023 4.267-6.506 8.377.477 3.792 3.707 6.565 7.432 6.565.313 0 .628-.02.945-.06 12.016-1.51 24.342-.015 24.464.002z"/></g></g></svg>